<svg width="23" height="23" viewBox="0 0 23 23" fill="none" xmlns="http://www.w3.org/2000/svg">
<path opacity="0.4" d="M18.7172 7.45466L14.6645 11.5073C14.6751 11.5497 14.6751 11.5814 14.6751 11.6237C14.6751 13.4437 13.1937 14.9251 11.3737 14.9251C11.3314 14.9251 11.2997 14.9251 11.2573 14.9145L7.20466 18.9672C8.46962 19.7058 9.90893 20.093 11.3737 20.0888C16.0401 20.0888 19.8388 16.2901 19.8388 11.6237C19.8388 10.1106 19.4367 8.6821 18.7172 7.45466ZM17.3533 5.6463L13.7027 9.29688C13.1101 8.69374 12.2848 8.32339 11.3748 8.32339C9.55478 8.32339 8.07339 9.80478 8.07339 11.6248C8.07339 12.5348 8.44374 13.3601 9.04688 13.9527L5.3963 17.6033C4.60862 16.8195 3.98348 15.888 3.55676 14.862C3.13003 13.8361 2.91013 12.7359 2.90967 11.6248C2.90967 6.95839 6.70839 3.15967 11.3748 3.15967C13.7027 3.15967 15.819 4.11199 17.3533 5.6463Z" fill="white"/>
<path d="M13.7018 9.29603L9.04603 13.9518C8.4429 13.3593 8.07255 12.5339 8.07255 11.6239C8.07255 9.80394 9.55394 8.32255 11.3739 8.32255C12.2839 8.32255 13.1093 8.6929 13.7018 9.29603ZM12.1686 1.0436V3.20221H12.158C11.9041 3.17047 11.6395 3.15988 11.375 3.15988C11.1105 3.15988 10.8459 3.17047 10.592 3.20221H10.5814V1.0436C10.5814 0.609767 10.9412 0.25 11.375 0.25C11.8088 0.25 12.1686 0.609767 12.1686 1.0436ZM2.90988 11.625C2.90988 11.8895 2.92047 12.1647 2.95221 12.4186H0.793605C0.359767 12.4186 0 12.0588 0 11.625C0 11.1912 0.359767 10.8314 0.793605 10.8314H2.95221C2.92047 11.0853 2.90988 11.3605 2.90988 11.625ZM12.1686 20.0478V22.2064C12.1686 22.6402 11.8088 23 11.375 23C10.9412 23 10.5814 22.6402 10.5814 22.2064V20.0478H10.592C10.8459 20.0795 11.1105 20.0901 11.375 20.0901C11.6395 20.0901 11.9041 20.0795 12.158 20.0478H12.1686ZM22.75 11.625C22.75 12.0588 22.3902 12.4186 21.9564 12.4186H19.7978C19.8295 12.1647 19.8401 11.8895 19.8401 11.625C19.8401 11.3605 19.8295 11.0853 19.7978 10.8314H21.9564C22.3902 10.8314 22.75 11.1912 22.75 11.625Z" fill="white"/>
<path d="M21.712 1.28593C21.3945 0.968491 20.8761 0.968491 20.5586 1.28593L1.03593 20.8192C0.718491 21.1366 0.718491 21.6551 1.03593 21.9726C1.11126 22.0476 1.20077 22.107 1.29924 22.1471C1.39772 22.1873 1.5032 22.2075 1.60954 22.2065C1.71589 22.2055 1.82098 22.1834 1.91869 22.1414C2.01641 22.0994 2.1048 22.0384 2.17872 21.962L21.712 2.42872C22.04 2.11128 22.04 1.60337 21.712 1.28593Z" fill="white"/>
</svg>
