<svg width="14" height="14" viewBox="0 0 14 14" fill="none" xmlns="http://www.w3.org/2000/svg">
<g clip-path="url(#clip0_140_5)">
<path opacity="0.34" d="M7.0874 9.625V10.85" stroke="currentColor" stroke-width="0.875" stroke-linecap="round" stroke-linejoin="round"/>
<path d="M4.17078 12.8333H10.0041V12.2499C10.0041 11.6083 9.47911 11.0833 8.83744 11.0833H5.33744C4.69578 11.0833 4.17078 11.6083 4.17078 12.2499V12.8333Z" stroke="currentColor" stroke-width="0.875" stroke-miterlimit="10"/>
<path d="M3.58746 12.8334H10.5875M6.99996 9.33342C4.74246 9.33342 2.91663 7.50758 2.91663 5.25008V3.50008C2.91663 2.21091 3.96079 1.16675 5.24996 1.16675H8.74996C10.0391 1.16675 11.0833 2.21091 11.0833 3.50008V5.25008C11.0833 7.50758 9.25746 9.33342 6.99996 9.33342Z" stroke="currentColor" stroke-width="0.875" stroke-linecap="round" stroke-linejoin="round"/>
<path opacity="0.34" d="M3.1909 6.7974C2.7534 6.6574 2.3684 6.40073 2.06506 6.0974C1.54006 5.51406 1.19006 4.81406 1.19006 3.9974C1.19006 3.18073 1.83173 2.53906 2.6484 2.53906H3.02756C2.9109 2.8074 2.85256 3.1049 2.85256 3.41406V5.16406C2.85256 5.7474 2.97506 6.29573 3.1909 6.7974ZM10.8092 6.7974C11.2467 6.6574 11.6317 6.40073 11.9351 6.0974C12.4601 5.51406 12.8101 4.81406 12.8101 3.9974C12.8101 3.18073 12.1684 2.53906 11.3517 2.53906H10.9726C11.0892 2.8074 11.1476 3.1049 11.1476 3.41406V5.16406C11.1476 5.7474 11.0251 6.29573 10.8092 6.7974Z" stroke="currentColor" stroke-width="0.875" stroke-linecap="round" stroke-linejoin="round"/>
</g>
<defs>
<clipPath id="clip0_140_5">
<rect width="14" height="14" fill="currentColor"/>
</clipPath>
</defs>
</svg>
