<svg width="20" height="20" viewBox="0 0 20 20" fill="none" xmlns="http://www.w3.org/2000/svg">
<path opacity="0.4" d="M18.5 8.19H15.61C13.24 8.19 11.31 6.26 11.31 3.89V1C11.31 0.45 10.86 0 10.31 0H6.07C2.99 0 0.5 2 0.5 5.57V14.43C0.5 18 2.99 20 6.07 20H13.93C17.01 20 19.5 18 19.5 14.43V9.19C19.5 8.64 19.05 8.19 18.5 8.19Z" fill="currentColor"/>
<path d="M13.7999 0.209993C13.3899 -0.200007 12.6799 0.0799931 12.6799 0.649993V4.13999C12.6799 5.59999 13.9199 6.80999 15.4299 6.80999C16.3799 6.81999 17.6999 6.81999 18.8299 6.81999C19.3999 6.81999 19.6999 6.14999 19.2999 5.74999C17.8599 4.29999 15.2799 1.68999 13.7999 0.209993ZM10.2799 12.72C10.1388 12.5805 9.94837 12.5023 9.74994 12.5023C9.55151 12.5023 9.36108 12.5805 9.21994 12.72L8.49994 13.44V9.24999C8.49994 8.83999 8.15994 8.49999 7.74994 8.49999C7.33994 8.49999 6.99994 8.83999 6.99994 9.24999V13.44L6.27994 12.72C6.1388 12.5805 5.94837 12.5023 5.74994 12.5023C5.55151 12.5023 5.36108 12.5805 5.21994 12.72C4.92994 13.01 4.92994 13.49 5.21994 13.78L7.21994 15.78C7.22994 15.79 7.23994 15.79 7.23994 15.8C7.29994 15.86 7.37994 15.91 7.45994 15.95C7.55994 15.98 7.64994 16 7.74994 16C7.84994 16 7.93994 15.98 8.02994 15.94C8.11994 15.9 8.19994 15.85 8.27994 15.78L10.2799 13.78C10.5699 13.49 10.5699 13.01 10.2799 12.72Z" fill="currentColor"/>
</svg>
