<svg width="20" height="21" viewBox="0 0 20 21" fill="none" xmlns="http://www.w3.org/2000/svg">
<path d="M7.34985 18.3755V16.8005H2.09996C1.52247 16.8005 0.997479 16.5695 0.619487 16.181C0.230995 15.803 0 15.278 0 14.7005C0 13.6191 0.839982 12.7161 1.90046 12.6111C1.96346 12.6006 2.02646 12.6006 2.09996 12.6006H17.8496C17.9231 12.6006 17.9861 12.6006 18.0491 12.6111C18.5531 12.6531 18.9941 12.8736 19.3301 13.2201C19.7606 13.6401 19.9916 14.2386 19.9391 14.8895C19.8446 15.992 18.8471 16.8005 17.7341 16.8005H12.5997V18.3755C12.5997 19.0716 12.3232 19.7393 11.8309 20.2316C11.3386 20.7239 10.671 21.0004 9.97479 21.0004C9.27861 21.0004 8.61095 20.7239 8.11867 20.2316C7.6264 19.7393 7.34985 19.0716 7.34985 18.3755Z" fill="white"/>
<path opacity="0.4" d="M18.5532 3.46493L18.0493 12.6102C17.9863 12.5997 17.9233 12.5997 17.8498 12.5997H2.10009C2.02659 12.5997 1.9636 12.5997 1.9006 12.6102L1.39661 3.46493C1.35196 3.02722 1.39963 2.58502 1.53654 2.16688C1.67345 1.74875 1.89655 1.36398 2.19142 1.03744C2.4863 0.710903 2.84639 0.449851 3.24844 0.271151C3.6505 0.0924518 4.08556 7.88404e-05 4.52554 0H15.4243C17.2828 0 18.7422 1.60647 18.5532 3.46493Z" fill="white"/>
<path d="M6.55446 0V5.24989C6.55446 5.68038 6.19747 6.03737 5.76698 6.03737C5.33648 6.03737 4.97949 5.68038 4.97949 5.24989V0H6.55446ZM10.7649 0V2.09996C10.7649 2.53045 10.4079 2.88744 9.97739 2.88744C9.5469 2.88744 9.1899 2.53045 9.1899 2.09996V0H10.7649Z" fill="white"/>
</svg>
