<svg width="25" height="25" viewBox="0 0 25 25" fill="none" xmlns="http://www.w3.org/2000/svg">
<path opacity="0.4" d="M18.2708 9.17717C18.6757 9.17717 19.0767 9.09741 19.4508 8.94246C19.8249 8.78751 20.1648 8.56039 20.4511 8.27408C20.7374 7.98776 20.9645 7.64786 21.1195 7.27377C21.2744 6.89968 21.3542 6.49874 21.3542 6.09383C21.3542 5.68892 21.2744 5.28798 21.1195 4.91389C20.9645 4.5398 20.7374 4.1999 20.4511 3.91359C20.1648 3.62727 19.8249 3.40015 19.4508 3.2452C19.0767 3.09025 18.6757 3.0105 18.2708 3.0105C17.4531 3.0105 16.6688 3.33535 16.0906 3.91359C15.5124 4.49182 15.1875 5.27608 15.1875 6.09383C15.1875 6.91158 15.5124 7.69584 16.0906 8.27408C16.6688 8.85231 17.4531 9.17717 18.2708 9.17717Z" fill="currentColor"/>
<path d="M6.72921 9.17716C7.13412 9.17716 7.53506 9.09741 7.90915 8.94246C8.28323 8.78751 8.62314 8.56039 8.90945 8.27408C9.19577 7.98776 9.42288 7.64786 9.57784 7.27377C9.73279 6.89968 9.81254 6.49874 9.81254 6.09383C9.81254 5.68892 9.73279 5.28798 9.57784 4.91389C9.42288 4.5398 9.19577 4.1999 8.90945 3.91359C8.62314 3.62727 8.28323 3.40015 7.90915 3.2452C7.53506 3.09025 7.13412 3.0105 6.72921 3.0105C5.91146 3.0105 5.1272 3.33535 4.54896 3.91359C3.97072 4.49182 3.64587 5.27608 3.64587 6.09383C3.64587 6.91158 3.97072 7.69584 4.54896 8.27408C5.1272 8.85231 5.91146 9.17716 6.72921 9.17716ZM18.2709 21.9907C19.0886 21.9907 19.8729 21.6659 20.4511 21.0876C21.0294 20.5094 21.3542 19.7251 21.3542 18.9074C21.3542 18.0896 21.0294 17.3054 20.4511 16.7271C19.8729 16.1489 19.0886 15.824 18.2709 15.824C17.4531 15.824 16.6689 16.1489 16.0906 16.7271C15.5124 17.3054 15.1875 18.0896 15.1875 18.9074C15.1875 19.7251 15.5124 20.5094 16.0906 21.0876C16.6689 21.6659 17.4531 21.9907 18.2709 21.9907Z" fill="currentColor"/>
<path opacity="0.4" d="M6.72921 21.9906C7.54696 21.9906 8.33122 21.6658 8.90945 21.0876C9.48769 20.5093 9.81254 19.7251 9.81254 18.9073C9.81254 18.0896 9.48769 17.3053 8.90945 16.7271C8.33122 16.1488 7.54696 15.824 6.72921 15.824C5.91146 15.824 5.1272 16.1488 4.54896 16.7271C3.97072 17.3053 3.64587 18.0896 3.64587 18.9073C3.64587 19.7251 3.97072 20.5093 4.54896 21.0876C5.1272 21.6658 5.91146 21.9906 6.72921 21.9906Z" fill="currentColor"/>
</svg>
