<svg width="20" height="21" viewBox="0 0 20 21" fill="none" xmlns="http://www.w3.org/2000/svg">
<path d="M19.8333 1.93814C18.5233 5.20814 15.5333 9.47814 12.6833 12.2681C12.4807 11.0075 11.8788 9.84512 10.9661 8.95221C10.0534 8.0593 8.87809 7.483 7.61328 7.30814C10.4133 4.44814 14.7133 1.41814 17.9933 0.0981364C18.5733 -0.121864 19.1533 0.0481364 19.5133 0.408136C19.8933 0.788136 20.0733 1.35814 19.8333 1.93814Z" fill="white"/>
<path opacity="0.4" d="M12.6832 12.2691C12.1832 12.7591 11.6832 13.2091 11.2032 13.5891L9.23321 15.1691C8.98321 15.3491 8.73321 15.4991 8.45321 15.6191C8.45321 15.4291 8.43321 15.2391 8.41321 15.0391C8.30321 14.2091 7.92321 13.4191 7.25321 12.7491C6.56321 12.0691 5.74321 11.6791 4.89321 11.5691C4.69321 11.5491 4.48321 11.5391 4.29321 11.5491C4.40321 11.2391 4.57321 10.9491 4.78321 10.7091L6.34321 8.73908C6.71321 8.26908 7.14321 7.78908 7.61321 7.30908C10.2132 7.66908 12.2732 9.68908 12.6832 12.2691Z" fill="white"/>
<path d="M8.4532 15.6203C8.4532 16.7203 8.0332 17.7703 7.2332 18.5603C6.6232 19.1803 5.8032 19.6003 4.8032 19.7203L2.3532 19.9903C1.0132 20.1403 -0.136798 18.9903 0.0132022 17.6403L0.283202 15.1803C0.523202 12.9903 2.3532 11.5903 4.2932 11.5503C4.4832 11.5403 4.6932 11.5503 4.8932 11.5703C5.7432 11.6803 6.5632 12.0703 7.2532 12.7503C7.9232 13.4203 8.3032 14.2103 8.4132 15.0403C8.4332 15.2403 8.4532 15.4303 8.4532 15.6203Z" fill="white"/>
</svg>
