<svg width="15" height="20" viewBox="0 0 15 20" fill="none" xmlns="http://www.w3.org/2000/svg">
<path opacity="0.4" d="M7.04004 0C4.42004 0 2.29004 2.13 2.29004 4.75C2.29004 7.32 4.30004 9.4 6.92004 9.49C7.00004 9.48 7.08004 9.48 7.14004 9.49H7.21004C8.4394 9.44898 9.60461 8.93148 10.4593 8.04691C11.314 7.16234 11.7912 5.98004 11.79 4.75C11.79 2.13 9.66004 0 7.04004 0Z" fill="white"/>
<path d="M12.12 12.1489C9.33 10.2889 4.78 10.2889 1.97 12.1489C0.7 12.9989 0 14.1489 0 15.3789C0 16.6089 0.7 17.7489 1.96 18.5889C3.36 19.5289 5.2 19.9989 7.04 19.9989C8.88 19.9989 10.72 19.5289 12.12 18.5889C13.38 17.7389 14.08 16.5989 14.08 15.3589C14.07 14.1289 13.38 12.9889 12.12 12.1489Z" fill="white"/>
</svg>
