<svg width="17" height="20" viewBox="0 0 17 20" fill="none" xmlns="http://www.w3.org/2000/svg">
<path d="M11.66 0.9C11.06 0.3 10.19 0 9.07 0H3.49C1.24 0 0 1.24 0 3.49C0 4.61 0.3 5.48 0.9 6.08C1.5 6.68 2.37 6.98 3.49 6.98H9.07C11.32 6.98 12.56 5.74 12.56 3.49C12.56 2.37 12.26 1.5 11.66 0.9Z" fill="white"/>
<path opacity="0.4" d="M6.74022 13.02H5.81021C4.86021 13.02 3.72021 13.38 3.72021 15.11V17.9C3.72021 19.63 4.86021 19.99 5.81021 19.99H6.74022C7.69022 19.99 8.83021 19.63 8.83021 17.9V15.11C8.84021 13.39 7.70022 13.02 6.74022 13.02Z" fill="white"/>
<path opacity="0.4" d="M12.7901 2.79004H12.5101C12.5401 3.01004 12.5601 3.24004 12.5601 3.49004C12.5601 3.74004 12.5401 3.97004 12.5101 4.19004H12.7901C14.8801 4.19004 14.8801 4.47004 14.8801 6.28004V8.14004C14.8801 9.95004 14.8801 10.23 12.7901 10.23H9.07009C6.08009 10.23 5.65009 11.65 5.59009 13.03C5.66009 13.03 5.74009 13.02 5.81009 13.02H6.74009C6.82009 13.02 6.90009 13.03 6.99009 13.03C7.04009 12.02 7.33009 11.62 9.07009 11.62H12.7901C16.0401 11.62 16.2801 10.3 16.2801 8.13004V6.28004C16.2801 4.11004 16.0401 2.79004 12.7901 2.79004Z" fill="white"/>
</svg>
