<svg width="21" height="22" viewBox="0 0 21 22" fill="none" xmlns="http://www.w3.org/2000/svg">
<path d="M19.9729 1.42411C19.8955 1.24422 19.7522 1.10083 19.5723 1.02348C19.4829 0.984429 19.3864 0.96446 19.2889 0.964849H15.3803C14.9796 0.964849 14.6474 1.29708 14.6474 1.69771C14.6474 2.09835 14.9796 2.43058 15.3803 2.43058H17.5202L12.9081 7.04274C12.6247 7.32611 12.6247 7.79515 12.9081 8.07852C13.0547 8.22509 13.2403 8.29349 13.426 8.29349C13.6116 8.29349 13.7973 8.22509 13.9439 8.07852L18.556 3.46636V5.6161C18.556 6.01673 18.8883 6.34896 19.2889 6.34896C19.6895 6.34896 20.0218 6.01673 20.0218 5.6161V1.70749C20.0315 1.60977 20.012 1.52183 19.9729 1.42411ZM7.05494 12.9135L2.44278 17.5256V15.3857C2.44278 14.985 2.11055 14.6528 1.70992 14.6528C1.30928 14.6528 0.977051 14.985 0.977051 15.3857V19.2943C0.977051 19.392 0.996594 19.4799 1.03568 19.5777C1.11385 19.7535 1.25065 19.9001 1.43631 19.9783C1.52426 20.0174 1.62197 20.0369 1.71969 20.0369H5.6283C6.02893 20.0369 6.36116 19.7047 6.36116 19.304C6.36116 18.9034 6.02893 18.5712 5.6283 18.5712H3.48833L8.10049 13.959C8.38387 13.6757 8.38387 13.2066 8.10049 12.9232C7.96184 12.7857 7.77498 12.7077 7.5797 12.7059C7.38442 12.7041 7.19614 12.7786 7.05494 12.9135Z" fill="white"/>
<path opacity="0.4" d="M0.928295 13.1916C0.586292 13.1916 0.283374 12.9473 0.214974 12.6053C0.0781722 11.9213 0 11.2079 0 10.5044C0 4.70988 4.70988 0 10.5044 0C11.2177 0 11.931 0.0684007 12.6248 0.214974C13.0254 0.293146 13.2795 0.684007 13.2013 1.07487C13.1232 1.4755 12.7225 1.71979 12.3414 1.65139C11.7454 1.53413 11.1298 1.46573 10.5142 1.46573C5.53068 1.46573 1.4755 5.52091 1.4755 10.5044C1.4755 11.1102 1.53413 11.7258 1.66116 12.3121C1.73933 12.7128 1.48527 13.0938 1.08464 13.172C1.02601 13.1916 0.977153 13.1916 0.928295 13.1916ZM10.5054 21.0068C9.79205 21.0068 9.07872 20.9384 8.38495 20.7919C8.19457 20.7541 8.02696 20.6423 7.91888 20.4811C7.81079 20.3199 7.77107 20.1224 7.80843 19.932C7.8866 19.5313 8.28723 19.287 8.66832 19.3554C9.26438 19.4727 9.87999 19.5411 10.4956 19.5411C15.4791 19.5411 19.5343 15.4859 19.5343 10.5024C19.5343 9.8966 19.4756 9.29077 19.3584 8.6947C19.2802 8.29407 19.5343 7.91298 19.9349 7.83481C20.3355 7.75664 20.7166 8.0107 20.7948 8.41133C20.9316 9.09534 21 9.79889 21 10.5024C21.0098 16.2969 16.2999 21.0068 10.5054 21.0068Z" fill="white"/>
</svg>
