{
  "accessors": [
    {
      "bufferView": 2,
      "componentType": 5126,
      "count": 65532,
      "max": [
        6.82569694519043,
        6.826535224914551,
        2.740927219390869
      ],
      "min": [
        -6.8042497634887695,
        -6.826536178588867,
        -2.740927219390869
      ],
      "type": "VEC3"
    },
    {
      "bufferView": 2,
      "byteOffset": 786384,
      "componentType": 5126,
      "count": 65532,
      "max": [
        1.0,
        0.9999994039535522,
        1.0
      ],
      "min": [
        -0.9992316961288452,
        -0.999996542930603,
        -1.0
      ],
      "type": "VEC3"
    },
    {
      "bufferView": 1,
      "componentType": 5126,
      "count": 65532,
      "max": [
        1.0,
        1.0
      ],
      "min": [
        0.0,
        0.0
      ],
      "type": "VEC2"
    },
    {
      "bufferView": 0,
      "componentType": 5125,
      "count": 252846,
      "type": "SCALAR"
    },
    {
      "bufferView": 2,
      "byteOffset": 1572768,
      "componentType": 5126,
      "count": 55481,
      "max": [
        6.67748498916626,
        6.8260087966918945,
        2.602163076400757
      ],
      "min": [
        -6.825702667236328,
        -6.826005458831787,
        -2.682252883911133
      ],
      "type": "VEC3"
    },
    {
      "bufferView": 2,
      "byteOffset": 2238540,
      "componentType": 5126,
      "count": 55481,
      "max": [
        0.9992344975471497,
        0.9999994039535522,
        1.0
      ],
      "min": [
        -1.0,
        -0.9999994039535522,
        -1.0
      ],
      "type": "VEC3"
    },
    {
      "bufferView": 1,
      "byteOffset": 524256,
      "componentType": 5126,
      "count": 55481,
      "max": [
        1.0,
        1.0
      ],
      "min": [
        0.0,
        0.0
      ],
      "type": "VEC2"
    },
    {
      "bufferView": 0,
      "byteOffset": 1011384,
      "componentType": 5125,
      "count": 228354,
      "type": "SCALAR"
    },
    {
      "bufferView": 2,
      "byteOffset": 2904312,
      "componentType": 5126,
      "count": 61200,
      "max": [
        6.883035659790039,
        6.883879661560059,
        2.4854116439819336
      ],
      "min": [
        -6.883040428161621,
        -6.883880615234375,
        -2.4854116439819336
      ],
      "type": "VEC3"
    },
    {
      "bufferView": 2,
      "byteOffset": 3638712,
      "componentType": 5126,
      "count": 61200,
      "max": [
        0.9999817609786987,
        0.9999869465827942,
        1.0
      ],
      "min": [
        -0.9999822378158569,
        -0.9999864101409912,
        -1.0
      ],
      "type": "VEC3"
    },
    {
      "bufferView": 1,
      "byteOffset": 968104,
      "componentType": 5126,
      "count": 61200,
      "max": [
        1.0,
        0.9999999403953552
      ],
      "min": [
        0.0,
        0.0
      ],
      "type": "VEC2"
    },
    {
      "bufferView": 0,
      "byteOffset": 1924800,
      "componentType": 5125,
      "count": 232800,
      "type": "SCALAR"
    }
  ],
  "asset": {
    "extras": {
      "author": "kalvsxjiro (https://sketchfab.com/kalvsxjiro)",
      "license": "CC-BY-4.0 (http://creativecommons.org/licenses/by/4.0/)",
      "source": "https://sketchfab.com/3d-models/tire-tread-925e6fa4b9ae449aa4bec16c6a67944d",
      "title": "Tire tread"
    },
    "generator": "Sketchfab-12.65.0",
    "version": "2.0"
  },
  "bufferViews": [
    {
      "buffer": 0,
      "byteLength": 2856000,
      "name": "floatBufferViews",
      "target": 34963
    },
    {
      "buffer": 0,
      "byteLength": 1457704,
      "byteOffset": 2856000,
      "byteStride": 8,
      "name": "floatBufferViews",
      "target": 34962
    },
    {
      "buffer": 0,
      "byteLength": 4373112,
      "byteOffset": 4313704,
      "byteStride": 12,
      "name": "floatBufferViews",
      "target": 34962
    }
  ],
  "buffers": [
    {
      "byteLength": 8686816,
      "uri": "scene.bin"
    }
  ],
  "extensionsRequired": [
    "KHR_materials_pbrSpecularGlossiness"
  ],
  "extensionsUsed": [
    "KHR_materials_pbrSpecularGlossiness"
  ],
  "images": [
    {
      "uri": "textures/RUBBER_DUST_diffuse.jpeg"
    }
  ],
  "materials": [
    {
      "doubleSided": true,
      "extensions": {
        "KHR_materials_pbrSpecularGlossiness": {
          "diffuseFactor": [
            0.122,
            0.122,
            0.122,
            1.0
          ],
          "glossinessFactor": 0.0,
          "specularFactor": [
            0.0,
            0.0,
            0.0
          ]
        }
      },
      "name": "RUBBER_TIRE"
    },
    {
      "doubleSided": true,
      "extensions": {
        "KHR_materials_pbrSpecularGlossiness": {
          "diffuseFactor": [
            1.0,
            1.0,
            1.0,
            1.0
          ],
          "diffuseTexture": {
            "index": 0
          },
          "glossinessFactor": 0.4,
          "specularFactor": [
            0.0,
            0.0,
            0.0
          ]
        }
      },
      "name": "RUBBER_DUST"
    }
  ],
  "meshes": [
    {
      "name": "polySurface9_RUBBER_TIRE_0",
      "primitives": [
        {
          "attributes": {
            "NORMAL": 1,
            "POSITION": 0,
            "TEXCOORD_0": 2
          },
          "indices": 3,
          "material": 0,
          "mode": 4
        }
      ]
    },
    {
      "name": "polySurface9_RUBBER_TIRE_0",
      "primitives": [
        {
          "attributes": {
            "NORMAL": 5,
            "POSITION": 4,
            "TEXCOORD_0": 6
          },
          "indices": 7,
          "material": 0,
          "mode": 4
        }
      ]
    },
    {
      "name": "polySurface9_RUBBER_DUST_0",
      "primitives": [
        {
          "attributes": {
            "NORMAL": 9,
            "POSITION": 8,
            "TEXCOORD_0": 10
          },
          "indices": 11,
          "material": 1,
          "mode": 4
        }
      ]
    }
  ],
  "nodes": [
    {
      "children": [
        1
      ],
      "matrix": [
        0.14548662304878235,
        0.0,
        0.0,
        0.0,
        0.0,
        3.230451973674383e-17,
        -0.14548662304878235,
        0.0,
        0.0,
        0.14548662304878235,
        3.230451973674383e-17,
        0.0,
        0.0,
        0.0,
        0.0,
        1.0
      ],
      "name": "Sketchfab_model"
    },
    {
      "children": [
        2
      ],
      "matrix": [
        1.0,
        0.0,
        0.0,
        0.0,
        0.0,
        0.0,
        1.0,
        0.0,
        0.0,
        -1.0,
        0.0,
        0.0,
        0.0,
        0.0,
        0.0,
        1.0
      ],
      "name": "d5348dc65ca24e928f8895ca0f2c7f6c.fbx"
    },
    {
      "children": [
        3
      ],
      "name": "RootNode"
    },
    {
      "children": [
        4,
        5,
        6
      ],
      "name": "polySurface9"
    },
    {
      "mesh": 0,
      "name": "polySurface9_RUBBER_TIRE_0"
    },
    {
      "mesh": 1,
      "name": "polySurface9_RUBBER_TIRE_0"
    },
    {
      "mesh": 2,
      "name": "polySurface9_RUBBER_DUST_0"
    }
  ],
  "samplers": [
    {
      "magFilter": 9729,
      "minFilter": 9987,
      "wrapS": 10497,
      "wrapT": 10497
    }
  ],
  "scene": 0,
  "scenes": [
    {
      "name": "Sketchfab_Scene",
      "nodes": [
        0
      ]
    }
  ],
  "textures": [
    {
      "sampler": 0,
      "source": 0
    }
  ]
}
