{
  "accessors": [
    {
      "bufferView": 2,
      "componentType": 5126,
      "count": 2274,
      "max": [
        0.02320193126797676,
        0.9331750869750977,
        0.9331344366073608
      ],
      "min": [
        -0.7018006443977356,
        -0.932708740234375,
        -0.9334330558776855
      ],
      "type": "VEC3"
    },
    {
      "bufferView": 2,
      "byteOffset": 27288,
      "componentType": 5126,
      "count": 2274,
      "max": [
        1.0,
        0.978611409664154,
        0.9848911166191101
      ],
      "min": [
        -1.0,
        -0.9778739809989929,
        -0.9789641499519348
      ],
      "type": "VEC3"
    },
    {
      "bufferView": 3,
      "componentType": 5126,
      "count": 2274,
      "max": [
        0.9890579581260681,
        0.9854152202606201,
        0.9991537928581238,
        1.0
      ],
      "min": [
        -0.978979229927063,
        -0.9815201163291931,
        -0.9997800588607788,
        -1.0
      ],
      "type": "VEC4"
    },
    {
      "bufferView": 1,
      "componentType": 5126,
      "count": 2274,
      "max": [
        0.9648181200027466,
        0.9967743158340454
      ],
      "min": [
        0.0003215267206542194,
        0.0003215267206542194
      ],
      "type": "VEC2"
    },
    {
      "bufferView": 0,
      "componentType": 5125,
      "count": 9630,
      "type": "SCALAR"
    }
  ],
  "asset": {
    "extras": {
      "author": "Serjogasan (https://sketchfab.com/Serjogasan)",
      "license": "CC-BY-4.0 (http://creativecommons.org/licenses/by/4.0/)",
      "source": "https://sketchfab.com/3d-models/free-car-wheel-e0fd5582e2bc402594bc8e40f5c68609",
      "title": "Free Car Wheel"
    },
    "generator": "Sketchfab-12.67.0",
    "version": "2.0"
  },
  "bufferViews": [
    {
      "buffer": 0,
      "byteLength": 38520,
      "name": "floatBufferViews",
      "target": 34963
    },
    {
      "buffer": 0,
      "byteLength": 18192,
      "byteOffset": 38520,
      "byteStride": 8,
      "name": "floatBufferViews",
      "target": 34962
    },
    {
      "buffer": 0,
      "byteLength": 54576,
      "byteOffset": 56712,
      "byteStride": 12,
      "name": "floatBufferViews",
      "target": 34962
    },
    {
      "buffer": 0,
      "byteLength": 36384,
      "byteOffset": 111288,
      "byteStride": 16,
      "name": "floatBufferViews",
      "target": 34962
    }
  ],
  "buffers": [
    {
      "byteLength": 147672,
      "uri": "scene.bin"
    }
  ],
  "images": [
    {
      "uri": "textures/Wheel.04_baseColor.png"
    },
    {
      "uri": "textures/Wheel.04_metallicRoughness.png"
    },
    {
      "uri": "textures/Wheel.04_normal.png"
    }
  ],
  "materials": [
    {
      "doubleSided": true,
      "name": "Wheel.04",
      "normalTexture": {
        "index": 2
      },
      "occlusionTexture": {
        "index": 1
      },
      "pbrMetallicRoughness": {
        "baseColorTexture": {
          "index": 0
        },
        "metallicRoughnessTexture": {
          "index": 1
        }
      }
    }
  ],
  "meshes": [
    {
      "name": "Wheel.04.Low.Poly_Wheel.04_0",
      "primitives": [
        {
          "attributes": {
            "NORMAL": 1,
            "POSITION": 0,
            "TANGENT": 2,
            "TEXCOORD_0": 3
          },
          "indices": 4,
          "material": 0,
          "mode": 4
        }
      ]
    }
  ],
  "nodes": [
    {
      "children": [
        1
      ],
      "matrix": [
        1.0,
        0.0,
        0.0,
        0.0,
        0.0,
        2.220446049250313e-16,
        -1.0,
        0.0,
        0.0,
        1.0,
        2.220446049250313e-16,
        0.0,
        0.0,
        0.0,
        0.0,
        1.0
      ],
      "name": "Sketchfab_model"
    },
    {
      "children": [
        2
      ],
      "matrix": [
        1.0,
        0.0,
        0.0,
        0.0,
        0.0,
        0.0,
        1.0,
        0.0,
        0.0,
        -1.0,
        0.0,
        0.0,
        0.0,
        0.0,
        0.0,
        1.0
      ],
      "name": "a3ecb569eaad401cab44f8b30e347ca2.fbx"
    },
    {
      "children": [
        3
      ],
      "name": "RootNode"
    },
    {
      "children": [
        4
      ],
      "matrix": [
        100.0,
        0.0,
        0.0,
        0.0,
        0.0,
        -1.629206793918314e-05,
        -99.99999999999868,
        0.0,
        0.0,
        99.99999999999868,
        -1.629206793918314e-05,
        0.0,
        0.0,
        0.0,
        0.0,
        1.0
      ],
      "name": "Wheel.04.Low.Poly"
    },
    {
      "mesh": 0,
      "name": "Wheel.04.Low.Poly_Wheel.04_0"
    }
  ],
  "samplers": [
    {
      "magFilter": 9729,
      "minFilter": 9987,
      "wrapS": 10497,
      "wrapT": 10497
    }
  ],
  "scene": 0,
  "scenes": [
    {
      "name": "Sketchfab_Scene",
      "nodes": [
        0
      ]
    }
  ],
  "textures": [
    {
      "sampler": 0,
      "source": 0
    },
    {
      "sampler": 0,
      "source": 1
    },
    {
      "sampler": 0,
      "source": 2
    }
  ]
}
