{
  "accessors": [
    {
      "bufferView": 2,
      "componentType": 5126,
      "count": 574,
      "max": [
        6.123264312744141,
        3.3610901832580566,
        18.89057159423828
      ],
      "min": [
        -4.956068992614746,
        -3.9995296001434326,
        0.0011348724365234375
      ],
      "type": "VEC3"
    },
    {
      "bufferView": 2,
      "byteOffset": 6888,
      "componentType": 5126,
      "count": 574,
      "max": [
        0.983163595199585,
        1.0,
        1.0
      ],
      "min": [
        -0.9831635355949402,
        -1.0,
        -1.0
      ],
      "type": "VEC3"
    },
    {
      "bufferView": 3,
      "componentType": 5126,
      "count": 574,
      "max": [
        1.0,
        0.9959645867347717,
        1.0,
        1.0
      ],
      "min": [
        -1.0,
        -1.0,
        -0.9872049689292908,
        1.0
      ],
      "type": "VEC4"
    },
    {
      "bufferView": 1,
      "componentType": 5126,
      "count": 574,
      "max": [
        0.7541086673736572,
        0.9997615814208984
      ],
      "min": [
        0.00023937225341796875,
        0.00023937225341796875
      ],
      "type": "VEC2"
    },
    {
      "bufferView": 1,
      "byteOffset": 4592,
      "componentType": 5126,
      "count": 574,
      "max": [
        0.7541086673736572,
        0.9997615814208984
      ],
      "min": [
        0.00023937225341796875,
        0.00023937225341796875
      ],
      "type": "VEC2"
    },
    {
      "bufferView": 1,
      "byteOffset": 9184,
      "componentType": 5126,
      "count": 574,
      "max": [
        0.7541086673736572,
        0.9997615814208984
      ],
      "min": [
        0.00023937225341796875,
        0.00023937225341796875
      ],
      "type": "VEC2"
    },
    {
      "bufferView": 1,
      "byteOffset": 13776,
      "componentType": 5126,
      "count": 574,
      "max": [
        0.7541086673736572,
        0.9997615814208984
      ],
      "min": [
        0.00023937225341796875,
        0.00023937225341796875
      ],
      "type": "VEC2"
    },
    {
      "bufferView": 1,
      "byteOffset": 18368,
      "componentType": 5126,
      "count": 574,
      "max": [
        0.7541086673736572,
        0.9997615814208984
      ],
      "min": [
        0.00023937225341796875,
        0.00023937225341796875
      ],
      "type": "VEC2"
    },
    {
      "bufferView": 0,
      "componentType": 5125,
      "count": 2334,
      "type": "SCALAR"
    },
    {
      "bufferView": 2,
      "byteOffset": 13776,
      "componentType": 5126,
      "count": 268,
      "max": [
        6.419013500213623,
        -0.36755067110061646,
        16.611772537231445
      ],
      "min": [
        -4.829466819763184,
        -4.515035629272461,
        0.05166339874267578
      ],
      "type": "VEC3"
    },
    {
      "bufferView": 2,
      "byteOffset": 16992,
      "componentType": 5126,
      "count": 268,
      "max": [
        1.0,
        0.8410011529922485,
        1.0
      ],
      "min": [
        -1.0,
        -1.0,
        -1.0
      ],
      "type": "VEC3"
    },
    {
      "bufferView": 3,
      "byteOffset": 9184,
      "componentType": 5126,
      "count": 268,
      "max": [
        0.9592453837394714,
        0.999968409538269,
        0.994345486164093,
        1.0
      ],
      "min": [
        -0.9840372204780579,
        -0.9999909996986389,
        -0.9999992251396179,
        1.0
      ],
      "type": "VEC4"
    },
    {
      "bufferView": 1,
      "byteOffset": 22960,
      "componentType": 5126,
      "count": 268,
      "max": [
        0.7729935646057129,
        0.999760627746582
      ],
      "min": [
        0.38156843185424805,
        0.3250856399536133
      ],
      "type": "VEC2"
    },
    {
      "bufferView": 1,
      "byteOffset": 25104,
      "componentType": 5126,
      "count": 268,
      "max": [
        0.7729935646057129,
        0.999760627746582
      ],
      "min": [
        0.38156843185424805,
        0.3250856399536133
      ],
      "type": "VEC2"
    },
    {
      "bufferView": 1,
      "byteOffset": 27248,
      "componentType": 5126,
      "count": 268,
      "max": [
        0.7729935646057129,
        0.999760627746582
      ],
      "min": [
        0.38156843185424805,
        0.3250856399536133
      ],
      "type": "VEC2"
    },
    {
      "bufferView": 1,
      "byteOffset": 29392,
      "componentType": 5126,
      "count": 268,
      "max": [
        0.7729935646057129,
        0.999760627746582
      ],
      "min": [
        0.38156843185424805,
        0.3250856399536133
      ],
      "type": "VEC2"
    },
    {
      "bufferView": 1,
      "byteOffset": 31536,
      "componentType": 5126,
      "count": 268,
      "max": [
        0.7729935646057129,
        0.999760627746582
      ],
      "min": [
        0.38156843185424805,
        0.3250856399536133
      ],
      "type": "VEC2"
    },
    {
      "bufferView": 0,
      "byteOffset": 9336,
      "componentType": 5125,
      "count": 1008,
      "type": "SCALAR"
    }
  ],
  "asset": {
    "extras": {
      "author": "@sanyabeast (https://sketchfab.com/sanchibbo)",
      "license": "CC-BY-4.0 (http://creativecommons.org/licenses/by/4.0/)",
      "source": "https://sketchfab.com/3d-models/eelislays-retro-coca-cola-fridge-03d5d9552c884d1795cc810f835bd2fe",
      "title": "Eelislay`s Retro Coca Cola Fridge"
    },
    "generator": "Sketchfab-14.86.0",
    "version": "2.0"
  },
  "bufferViews": [
    {
      "buffer": 0,
      "byteLength": 13368,
      "name": "floatBufferViews",
      "target": 34963
    },
    {
      "buffer": 0,
      "byteLength": 33680,
      "byteOffset": 13368,
      "byteStride": 8,
      "name": "floatBufferViews",
      "target": 34962
    },
    {
      "buffer": 0,
      "byteLength": 20208,
      "byteOffset": 47048,
      "byteStride": 12,
      "name": "floatBufferViews",
      "target": 34962
    },
    {
      "buffer": 0,
      "byteLength": 13472,
      "byteOffset": 67256,
      "byteStride": 16,
      "name": "floatBufferViews",
      "target": 34962
    }
  ],
  "buffers": [
    {
      "byteLength": 80728,
      "uri": "scene.bin"
    }
  ],
  "images": [
    {
      "uri": "textures/main_steel.001_baseColor.png"
    },
    {
      "uri": "textures/main_steel.001_metallicRoughness.png"
    },
    {
      "uri": "textures/main_steel.001_normal.png"
    },
    {
      "uri": "textures/alt_steel.001_baseColor.png"
    },
    {
      "uri": "textures/alt_steel.001_metallicRoughness.png"
    },
    {
      "uri": "textures/alt_steel.001_normal.png"
    }
  ],
  "materials": [
    {
      "name": "main_steel.001",
      "normalTexture": {
        "index": 2
      },
      "occlusionTexture": {
        "index": 1
      },
      "pbrMetallicRoughness": {
        "baseColorTexture": {
          "index": 0
        },
        "metallicRoughnessTexture": {
          "index": 1
        }
      }
    },
    {
      "name": "alt_steel.001",
      "normalTexture": {
        "index": 5
      },
      "occlusionTexture": {
        "index": 4
      },
      "pbrMetallicRoughness": {
        "baseColorTexture": {
          "index": 3
        },
        "metallicRoughnessTexture": {
          "index": 4
        }
      }
    }
  ],
  "meshes": [
    {
      "name": "Object_0",
      "primitives": [
        {
          "attributes": {
            "NORMAL": 1,
            "POSITION": 0,
            "TANGENT": 2,
            "TEXCOORD_0": 3,
            "TEXCOORD_1": 4,
            "TEXCOORD_2": 5,
            "TEXCOORD_3": 6,
            "TEXCOORD_4": 7
          },
          "indices": 8,
          "material": 0,
          "mode": 4
        }
      ]
    },
    {
      "name": "Object_1",
      "primitives": [
        {
          "attributes": {
            "NORMAL": 10,
            "POSITION": 9,
            "TANGENT": 11,
            "TEXCOORD_0": 12,
            "TEXCOORD_1": 13,
            "TEXCOORD_2": 14,
            "TEXCOORD_3": 15,
            "TEXCOORD_4": 16
          },
          "indices": 17,
          "material": 1,
          "mode": 4
        }
      ]
    }
  ],
  "nodes": [
    {
      "children": [
        1
      ],
      "matrix": [
        1.0,
        0.0,
        0.0,
        0.0,
        0.0,
        2.220446049250313e-16,
        -1.0,
        0.0,
        0.0,
        1.0,
        2.220446049250313e-16,
        0.0,
        0.0,
        0.0,
        0.0,
        1.0
      ],
      "name": "Sketchfab_model"
    },
    {
      "children": [
        2
      ],
      "name": "root"
    },
    {
      "children": [
        3
      ],
      "matrix": [
        1.0,
        0.0,
        0.0,
        0.0,
        0.0,
        2.220446049250313e-16,
        1.0,
        0.0,
        0.0,
        -1.0,
        2.220446049250313e-16,
        0.0,
        0.0,
        0.0,
        0.0,
        1.0
      ],
      "name": "GLTF_SceneRootNode"
    },
    {
      "children": [
        4
      ],
      "name": "RootNode_0"
    },
    {
      "children": [
        5,
        7
      ],
      "matrix": [
        100.0,
        0.0,
        -0.0,
        0.0,
        -0.0,
        -1.685873969314855e-05,
        -99.99999999999858,
        0.0,
        0.0,
        99.99999999999858,
        -1.685873969314855e-05,
        0.0,
        0.0,
        0.0,
        0.0,
        1.0
      ],
      "name": "RetroCocaColaFridge_1"
    },
    {
      "children": [
        6
      ],
      "name": "RetroCocaColaFridge_2"
    },
    {
      "mesh": 0,
      "name": "Object_6"
    },
    {
      "children": [
        8
      ],
      "name": "RetroCocaColaFridge_3"
    },
    {
      "mesh": 1,
      "name": "Object_8"
    }
  ],
  "samplers": [
    {
      "magFilter": 9729,
      "minFilter": 9987,
      "wrapS": 10497,
      "wrapT": 10497
    }
  ],
  "scene": 0,
  "scenes": [
    {
      "name": "Sketchfab_Scene",
      "nodes": [
        0
      ]
    }
  ],
  "textures": [
    {
      "sampler": 0,
      "source": 0
    },
    {
      "sampler": 0,
      "source": 1
    },
    {
      "sampler": 0,
      "source": 2
    },
    {
      "sampler": 0,
      "source": 3
    },
    {
      "sampler": 0,
      "source": 4
    },
    {
      "sampler": 0,
      "source": 5
    }
  ]
}
