<svg width="756" height="756" viewBox="0 0 756 756" fill="none" xmlns="http://www.w3.org/2000/svg">
<g style="mix-blend-mode:screen" opacity="0.05">
<path d="M5.33597 490.394C7.72407 438.577 40.7565 400.802 67.2991 370.448L69.1846 368.294C72.2637 365.054 79.3676 356.383 78.8091 345.91C78.4691 339.536 75.3119 333.765 69.4267 328.764C65.8973 325.765 62.6326 322.963 59.5278 320.297C45.7976 308.51 34.9539 299.199 18.1164 287.523C11.9648 283.26 5.91084 279.223 0 275.429V276.025C5.81897 279.765 11.7777 283.742 17.8297 287.938C34.6455 299.599 45.4808 308.901 59.1997 320.68C62.305 323.346 65.5699 326.15 69.0999 329.149C74.8761 334.058 77.9743 339.706 78.3056 345.937C78.853 356.215 71.8534 364.753 68.8118 367.953L66.9184 370.119C40.3245 400.529 7.22859 438.379 4.83262 490.372C4.57669 495.909 2.42288 499.296 0 500.447V501.046C2.62107 499.968 5.05181 496.537 5.33597 490.394Z" fill="white"/>
<path d="M17.0829 490.936C19.2819 443.223 50.8155 407.163 76.1539 378.188L78.0471 376.023C83.3666 369.934 87.6777 364.54 90.8584 359.989C94.7999 354.349 102.137 343.852 84.8111 327.125C66.1283 309.085 45.9435 292.51 24.8168 277.86C16.2022 271.886 7.91043 266.502 0 261.667V262.255C7.82184 267.044 16.0164 272.372 24.53 278.273C45.6343 292.908 65.7982 309.466 84.462 327.487C101.477 343.916 94.3006 354.184 90.445 359.7C87.2746 364.236 82.9755 369.617 77.6679 375.692L75.7732 377.859C50.3842 406.891 18.7864 443.024 16.5795 490.913C15.5551 513.124 11.6123 526.048 4.17046 531.589C2.69784 532.684 1.30266 533.281 0 533.424V533.929C1.41619 533.791 2.88291 533.175 4.47038 531.992C12.0442 526.357 16.0512 513.311 17.0829 490.936Z" fill="white"/>
<path d="M222.14 149.664C218.875 136.77 192.533 133.323 162.032 129.331C154.495 128.345 146.701 127.325 139.132 126.131C105.69 120.852 75.0757 104.064 45.4695 87.8285C30.6442 79.6973 15.498 71.3964 0 64.5689V65.8508C15.2919 72.6212 30.2544 80.8263 44.9046 88.86C74.5986 105.144 105.304 121.981 138.948 127.292C146.533 128.488 154.334 129.509 161.88 130.497C190.705 134.27 217.931 137.832 220.999 149.953C223.391 159.397 211.092 173.722 183.399 193.749C144.546 221.849 111.943 234.936 80.7976 234.936C63.0984 234.934 45.5483 230.541 28.6354 221.876C18.1092 216.483 8.84493 209.923 0 203.303V204.772C8.673 211.241 17.7705 217.63 28.0993 222.922C45.1802 231.673 62.9101 236.11 80.7969 236.11C80.7988 236.11 80.7988 236.11 80.8008 236.11C112.205 236.11 145.027 222.953 184.089 194.702C212.607 174.078 224.697 159.768 222.14 149.664Z" fill="white"/>
<path d="M4.35684 414.844C8.88431 406.879 14.7532 399.657 20.4291 392.671C28.6164 382.595 37.0826 372.177 41.6391 359.375C49.6736 336.803 33.9256 326.374 17.2528 315.333C15.7152 314.315 14.1684 313.29 12.6151 312.238C9.86738 310.38 7.27191 308.624 4.71581 306.854C3.45976 305.982 1.91231 304.866 0 303.475V304.097C1.77188 305.385 3.23793 306.442 4.42903 307.267C6.98776 309.041 9.58388 310.797 12.3493 312.666C13.8876 313.708 15.4357 314.733 16.9746 315.753C33.4779 326.683 49.0666 337.006 41.1645 359.207C36.6364 371.927 28.1985 382.311 20.0379 392.354C14.3489 399.354 8.46759 406.594 3.91847 414.594C2.55676 416.989 1.3125 420.104 0 423.405V424.766C0.1365 424.423 0.274312 424.081 0.4095 423.741C1.73776 420.398 2.9925 417.243 4.35684 414.844Z" fill="white"/>
<path d="M277.329 128.147C275.985 130.277 272.593 130.269 267.34 128.157C266.114 127.663 264.859 127.221 263.644 126.791C256.885 124.406 251.047 122.344 254.152 113.256C256.401 106.677 259.575 103.199 263.331 103.199C267.006 103.199 270.937 106.561 273.848 112.194C277.652 119.608 278.952 125.572 277.329 128.147ZM263.331 102.359C260.437 102.359 256.358 104.202 253.357 112.983C249.984 122.86 256.484 125.153 263.363 127.583C264.57 128.009 265.818 128.45 267.027 128.937C269.739 130.025 272.019 130.578 273.805 130.578C275.785 130.578 277.208 129.911 278.038 128.596C280.61 124.518 276.488 115.498 274.596 111.809C271.537 105.891 267.326 102.359 263.331 102.359Z" fill="white"/>
<path d="M45.4033 377.857C46.1546 376.962 46.9185 376.064 47.6865 375.161C58.5008 362.44 69.6819 349.285 56.973 333.555C47.1423 321.389 32.3059 311.356 19.215 302.506C16.5021 300.671 13.9401 298.937 11.4161 297.188C9.72234 296.014 7.42809 294.339 4.77159 292.4C3.31209 291.335 1.70822 290.164 0 288.928V289.549C1.596 290.707 3.10078 291.804 4.47497 292.807C7.13343 294.747 9.43031 296.424 11.1293 297.602C13.6553 299.354 16.2192 301.088 18.9328 302.922C31.9936 311.754 46.7979 321.763 56.5812 333.871C69.0277 349.277 57.983 362.27 47.3026 374.833C46.534 375.738 45.7696 376.637 45.0181 377.534C35.6271 388.727 23.6309 403.714 14.1422 420.405C8.38162 430.538 3.63759 441.186 0 452.111V453.766C3.68615 442.349 8.57457 431.221 14.5799 420.655C24.0489 403.999 36.0261 389.032 45.4033 377.857Z" fill="white"/>
<path d="M35.8346 207.821C48.6039 214.363 59.4523 217.411 69.9765 217.411C80.9931 217.411 90.7889 214.101 102.132 210.269C108.567 208.095 115.86 205.63 124.128 203.556C128.321 202.504 131.978 202.381 134.363 202.381C135.966 202.381 137.503 202.443 138.989 202.504C140.397 202.559 141.728 202.615 143.044 202.615C149.855 202.613 155.268 201.004 161.203 192.987C165.207 187.577 166.707 183.399 168.03 179.715C170.009 174.201 171.572 169.848 180.284 163.619C182.519 162.019 185.716 160.763 188.81 159.546C193.79 157.588 198.09 155.896 198.269 153.03C198.411 150.708 195.708 148.116 189.756 144.877C182.624 141.006 172.449 140.483 163.436 140.483C159.416 140.483 155.194 140.608 151.112 140.727C147.011 140.848 142.769 140.972 138.708 140.972C129.66 140.972 123.317 140.346 118.144 138.941C88.9074 131.002 61.4945 115.969 37.3091 102.705C24.6147 95.7434 12.2968 88.9982 0 83.2005V84.1295C12.1583 89.8802 24.3469 96.5548 36.9062 103.443C61.1323 116.728 88.5904 131.786 117.924 139.751C123.172 141.177 129.583 141.812 138.708 141.812C142.781 141.812 147.029 141.688 151.137 141.567C155.213 141.448 159.428 141.323 163.436 141.323C172.343 141.323 182.389 141.834 189.354 145.614C194.831 148.596 197.548 151.072 197.43 152.976C197.286 155.309 193.019 156.988 188.503 158.764C185.361 160 182.114 161.277 179.795 162.937C170.869 169.317 169.188 174.004 167.239 179.431C165.935 183.061 164.458 187.177 160.527 192.486C154.803 200.219 149.594 201.773 143.044 201.775C141.745 201.775 140.423 201.721 139.023 201.664C137.528 201.603 135.984 201.541 134.363 201.541C131.933 201.541 128.208 201.666 123.923 202.741C115.624 204.824 108.313 207.294 101.863 209.473C90.5906 213.281 80.8545 216.571 69.9765 216.571C59.5908 216.571 48.8636 213.553 36.2164 207.074C24.6553 201.148 14.2577 193.267 4.2 185.644C2.80481 184.585 1.40438 183.525 0 182.468V183.518C1.23506 184.449 2.46619 185.383 3.69469 186.314C13.7786 193.958 24.2064 201.862 35.8346 207.821Z" fill="white"/>
<path d="M43.5716 192.72C55.9853 199.078 68.1561 202.173 80.7883 202.176C87.8588 202.175 103.126 199.29 116.436 194.462C128.097 190.233 142.003 183.209 142.035 173.761C142.074 162.636 120.592 156.457 107.756 152.764C104.966 151.961 102.555 151.266 100.945 150.683C77.9619 142.358 55.1494 131.841 29.1539 117.585C19.2308 112.143 9.54712 106.833 0 102.063V102.628C9.46641 107.365 19.0707 112.631 28.9111 118.027C54.9308 132.295 77.765 142.822 100.773 151.158C102.399 151.746 104.817 152.442 107.616 153.248C120.315 156.902 141.569 163.015 141.531 173.759C141.475 190.087 95.447 201.671 80.7811 201.672C68.2389 201.669 56.1422 198.593 43.8015 192.271C33.537 187.011 23.732 179.579 14.2492 172.39C9.65803 168.909 4.93566 165.332 0 161.853V162.471C4.82541 165.882 9.44803 169.384 13.9433 172.791C23.4446 179.994 33.2679 187.439 43.5716 192.72Z" fill="white"/>
<path d="M48.9334 182.253C59.64 187.738 70.0508 190.408 80.787 190.416C90.1058 190.416 102.27 187.651 106.956 181.584C108.995 178.947 109.57 175.852 108.666 172.39C106.54 164.243 89.479 158.484 77.0214 154.278C72.9953 152.917 69.5186 151.742 67.3831 150.751C52.9889 144.073 38.7457 136.26 24.9703 128.703L23.4347 127.861C15.4718 123.495 7.67026 119.219 0 115.26V115.827C7.5915 119.752 15.3123 123.98 23.1919 128.303L24.7281 129.146C38.5106 136.706 52.7619 144.523 67.1711 151.21C69.3316 152.211 72.8201 153.39 76.86 154.755C88.5123 158.688 106.121 164.635 108.179 172.517C109.041 175.82 108.495 178.769 106.558 181.275C101.975 187.209 89.987 189.912 80.7581 189.912C70.1328 189.905 59.7976 187.253 49.163 181.804C39.818 177.016 30.4303 169.9 21.3478 163.014C14.7801 158.036 7.72931 152.697 0 147.65V148.253C7.61184 153.241 14.5655 158.504 21.0472 163.418C30.1436 170.313 39.5489 177.445 48.9334 182.253Z" fill="white"/>
<path d="M298.16 10.0615C298.998 6.67291 299.823 3.3297 300.599 -7.62939e-05H299.735C298.974 3.26418 298.166 6.54016 297.345 9.85983C295.801 16.091 294.207 22.5321 292.915 29.1093C288.61 51.0316 284.899 79.773 294.497 107.669C298.398 119.006 308.115 128.268 316.688 136.439C324.317 143.712 330.906 149.99 330.313 155.271C330.039 157.698 328.265 159.855 324.892 161.865C323.333 162.795 320.67 163.264 316.976 163.264C304.08 163.264 281.326 157.572 264.497 151.931C246.192 145.794 223.638 136.018 220.14 124.295C219.027 120.56 219.94 116.788 222.86 113.082C226.603 108.333 230.622 104.157 234.508 100.116C242.155 92.1681 249.377 84.6602 254.159 73.5151C260.976 57.6206 261.804 41.0457 256.617 24.249C255.362 20.1784 254.095 16.4286 252.978 13.119C251.328 8.22855 249.892 3.96136 248.914 -7.62939e-05H248.04C249.033 4.04033 250.498 8.39488 252.183 13.3878C253.297 16.6924 254.562 20.4355 255.815 24.496C260.941 41.0961 260.123 57.4778 253.386 73.1841C248.667 84.1881 241.495 91.6422 233.903 99.5332C230.002 103.589 225.97 107.78 222.202 112.563C219.102 116.496 218.138 120.523 219.336 124.535C222.936 136.602 245.737 146.526 264.23 152.725C281.124 158.39 303.986 164.104 316.976 164.104C320.824 164.104 323.632 163.593 325.322 162.587C328.937 160.433 330.842 158.069 331.146 155.365C331.788 149.671 325.06 143.259 317.268 135.831C308.764 127.725 299.126 118.539 295.292 107.396C285.76 79.689 289.456 51.0904 293.74 29.2706C295.026 22.7152 296.619 16.2825 298.16 10.0615Z" fill="white"/>
<path d="M171.884 391.067C173.752 391.067 175.303 391.838 176.491 393.363C180.361 398.319 179.602 409.846 178.335 414.916C172.17 439.575 158.948 448.338 138.931 461.605C133.929 464.918 129.085 468.732 124.399 472.418C118.701 476.901 112.809 481.538 106.621 485.285C102.851 487.566 99.6383 488.519 97.6492 487.939C96.7645 487.684 96.134 487.139 95.773 486.316C94.914 484.357 95.6208 480.923 97.7621 476.649C103.508 465.178 113.145 455.441 122.466 446.025C124.052 444.422 125.62 442.839 127.145 441.269C138.479 429.599 148.555 418.963 157.077 406.955C157.774 405.97 158.572 404.65 159.415 403.252C162.451 398.219 166.611 391.327 171.519 391.075C171.642 391.07 171.763 391.067 171.884 391.067ZM158.984 402.992C158.145 404.381 157.352 405.695 156.664 406.662C148.164 418.641 138.103 429.263 126.784 440.918C125.26 442.487 123.693 444.069 122.108 445.67C112.759 455.114 103.093 464.879 97.3112 476.423C95.0696 480.898 94.3777 484.388 95.311 486.518C95.7355 487.484 96.4752 488.126 97.5094 488.423C97.9373 488.547 98.4151 488.609 98.9329 488.609C101.007 488.609 103.756 487.608 106.881 485.715C113.095 481.953 119.001 477.306 124.711 472.812C129.389 469.133 134.225 465.326 139.213 462.023C159.325 448.693 172.613 439.888 178.824 415.037C180.111 409.886 180.867 398.146 176.889 393.053C175.518 391.297 173.722 390.472 171.493 390.573C166.317 390.837 162.079 397.861 158.984 402.992Z" fill="white"/>
<path d="M54.2096 171.933C57.5597 173.65 66.9729 176.717 73.8064 176.716C76.2458 176.716 78.1049 176.313 79.3335 175.515C81.9958 173.786 83.1706 172.165 82.9245 170.562C82.3803 167.022 74.6832 164.884 68.4981 163.165C65.9511 162.458 63.7521 161.846 62.5039 161.268C47.756 154.426 33.3388 146.516 19.3974 138.867L17.8534 138.02C11.8053 134.704 5.85572 131.445 0 128.345V129.294C5.72643 132.334 11.5441 135.519 17.4562 138.761L18.9939 139.605C32.9477 147.259 47.3773 155.175 62.1508 162.029C63.4607 162.637 65.6907 163.257 68.273 163.975C73.9108 165.54 81.6322 167.686 82.0942 170.69C82.2819 171.914 81.1991 173.302 78.8753 174.811C77.786 175.518 76.0803 175.876 73.8064 175.876C67.2007 175.877 57.7868 172.823 54.5935 171.185C46.1901 166.878 37.2369 160.091 28.5566 153.51C20.2788 147.235 10.8609 140.1 0 133.61V134.597C10.6536 141.001 19.9172 148.015 28.0711 154.197C36.7586 160.783 45.7414 167.592 54.2096 171.933Z" fill="white"/>
<path d="M28.9971 491.486C31.0052 447.94 61.0156 413.619 85.1295 386.044L87.0299 383.87C115.706 351.044 114.542 339.582 101.088 326.306C86.3355 311.752 63.0826 289.877 31.6136 268.057C20.8727 260.61 10.2487 253.804 0 247.744V248.719C10.0964 254.703 20.5563 261.415 31.1338 268.748C62.5511 290.532 85.7679 312.372 100.497 326.904C113.563 339.797 114.628 351.001 86.3974 383.319L84.4974 385.491C60.2969 413.166 30.1804 447.607 28.159 491.445C26.2611 532.595 10.7638 544.676 0 548.068V548.948C11.0132 545.59 27.0631 533.449 28.9971 491.486Z" fill="white"/>
<path d="M214.43 14.5302C225.945 50.3881 230.622 69.8693 202.049 86.3854C197.358 89.0969 192.034 91.0995 186.223 92.3343C181.297 93.3843 175.881 93.9168 170.124 93.9168C117.008 93.9101 44.0481 49.5296 4.85166 25.6887L3.51422 24.8739C2.31328 24.1431 1.14778 23.4358 0 22.7386V23.7214C1.00734 24.3329 2.03043 24.9545 3.07781 25.5912L4.41526 26.4043C43.682 50.2906 116.772 94.7501 170.124 94.7568C175.941 94.7568 181.416 94.2192 186.399 93.1575C192.296 91.9025 197.702 89.8697 202.469 87.1128C231.603 70.2725 226.881 50.556 215.23 14.2731C213.755 9.67995 212.221 4.89531 210.816 -0.000205994H209.941C211.369 4.98435 212.928 9.85471 214.43 14.5302Z" fill="white"/>
<path d="M198.594 19.6157C203.256 34.1342 207.715 52.3421 200.745 64.3676C197.294 70.3265 191.243 74.2627 182.764 76.0671C178.969 76.8751 174.717 77.2867 170.127 77.2867C121.667 77.28 51.2991 34.4736 13.4945 11.4778L6.51919 7.24084C4.38243 5.94724 2.20828 4.7393 0 3.60194V4.17312C2.11838 5.27016 4.20657 6.43105 6.258 7.67257L13.2326 11.9078C51.0792 34.9289 121.526 77.7823 170.127 77.7891C174.754 77.7891 179.039 77.3758 182.868 76.5593C191.493 74.7247 197.655 70.7062 201.182 64.6212C208.249 52.4227 203.769 34.0788 199.075 19.4611C197.062 13.1947 195.068 6.68307 193.36 2.28882e-05H192.839C194.556 6.7385 196.567 13.3022 198.594 19.6157Z" fill="white"/>
<path d="M187.399 23.211C187.646 23.9804 187.9 24.7516 188.153 25.5244C190.838 33.6959 193.615 42.1446 189.131 50.301C185.39 57.1067 177.81 62.6255 169.816 64.3609C169 64.5373 168.175 64.675 167.367 64.7691C165.369 65.0009 163.269 65.1203 161.126 65.1203C138.569 65.1203 112.107 52.1154 92.7859 42.62L89.5512 41.0325C64.7254 28.876 40.7551 14.2952 19.6054 1.42974C18.7077 0.885414 17.9347 0.415054 17.2516 9.91821e-05H16.2803C17.8724 0.966095 19.3444 1.86151 19.3437 1.85983C40.5025 14.7303 64.4831 29.3195 89.3295 41.486L92.5635 43.0736C111.929 52.5892 138.452 65.6226 161.126 65.6226C163.289 65.6226 165.408 65.5049 167.425 65.2697C168.249 65.174 169.09 65.0346 169.924 64.8515C178.051 63.0875 185.764 57.4712 189.573 50.5446C194.163 42.1966 191.35 33.6404 188.632 25.3681C188.378 24.5953 188.125 23.8259 187.878 23.0581C185.514 15.693 183.186 7.9801 181.259 9.91821e-05H180.739C182.675 8.03722 185.018 15.8005 187.399 23.211Z" fill="white"/>
<path d="M183.266 380.785C190.347 389.856 191.757 409.028 189.581 417.729C182.324 446.756 166.001 457.571 145.327 471.273C144.296 471.956 143.25 472.644 142.194 473.34C129.582 481.644 115.287 491.059 107.133 503.919C102.821 510.718 101.148 518.507 99.5296 526.038C97.9485 533.397 96.3139 541.005 92.1986 547.51C89.2611 552.154 85.85 556.9 82.8195 556.9C80.5054 556.9 78.3786 554.098 76.3186 548.335C75.6736 546.529 75.392 544.73 75.4582 542.831C75.6519 537.232 78.9239 531.911 82.0883 526.769C84.8242 522.322 87.4072 518.122 88.1436 513.766C89.3123 506.839 87.8516 500.245 86.4387 493.868C84.6878 485.963 83.0327 478.496 85.9334 470.403C89.4101 460.703 100.993 449.968 110.3 441.341C113.464 438.409 116.452 435.641 118.838 433.183C127.959 423.797 137.389 414.088 145.754 403.286C147.281 401.313 149.002 398.588 150.825 395.702C155.924 387.631 162.271 377.587 169.31 375.85C170.586 375.534 171.829 375.376 173.008 375.376C177.012 375.376 180.462 377.195 183.266 380.785ZM169.109 375.033C161.742 376.852 155.295 387.057 150.115 395.253C148.303 398.121 146.591 400.831 145.09 402.77C136.753 413.537 127.341 423.227 118.237 432.598C115.865 435.039 112.885 437.801 109.729 440.726C100.354 449.413 88.6882 460.226 85.1426 470.121C82.1613 478.442 83.9187 486.377 85.6184 494.049C87.0136 500.348 88.4565 506.861 87.3147 513.623C86.6074 517.821 84.065 521.952 81.373 526.327C78.1516 531.565 74.8197 536.982 74.6182 542.803C74.55 544.78 74.8558 546.739 75.5278 548.617C77.7526 554.842 80.0691 557.74 82.8195 557.74C85.5908 557.74 88.513 554.907 92.9085 547.96C97.1033 541.33 98.7538 533.647 100.351 526.215C101.954 518.754 103.611 511.041 107.842 504.369C115.9 491.66 130.115 482.301 142.656 474.042C143.712 473.347 144.759 472.656 145.798 471.969C166.617 458.173 183.06 447.275 190.396 417.932C192.337 410.165 191.827 390.387 183.928 380.27C180.091 375.354 175.051 373.566 169.109 375.033Z" fill="white"/>
<path d="M178.265 357.752C180.724 361.615 183.844 363.989 187.147 366.5C190.717 369.215 194.408 372.024 197.296 376.946C203.91 388.223 209.012 408.564 205.716 421.76C196.893 457.056 176.308 470.695 154.515 485.135C129.493 501.715 103.618 518.861 94.1207 570.459C91.8291 582.911 88.0386 589.493 83.158 589.493C75.5239 589.493 66.2451 573.607 63.357 559.942C58.3504 536.264 60.0042 508.037 68.2724 476.043C73.7554 454.826 89.4573 439.35 104.643 424.383C112.54 416.601 120.704 408.552 127.282 399.826C128.878 397.71 131.415 394.867 134.353 391.574C144.024 380.737 157.27 365.894 154.957 357.025C154.125 353.84 152.15 350.666 150.057 347.308C147.915 343.869 145.7 340.311 144.909 336.841C143.905 332.442 145.467 331.664 146.845 330.98C147.606 330.6 148.394 330.209 148.586 329.285C148.841 328.053 148.059 326.172 143.376 320.608C140.717 317.449 133.194 313.412 125.919 309.506C118.279 305.405 109.618 300.755 108.896 298.079C107.258 292.004 107.773 289.608 108.494 288.667C108.878 288.165 109.442 287.922 110.214 287.922C117.557 287.922 138.873 308.831 156.372 328.398C156.589 328.641 156.713 328.762 156.719 328.767C159.996 331.255 162.882 331.872 165.428 332.415C169.026 333.182 172.134 333.846 175.871 339.227C177.65 341.789 177.349 344.87 177.033 348.131C176.716 351.409 176.385 354.797 178.265 357.752ZM176.837 338.557C172.835 332.793 169.356 332.05 165.674 331.266C163.129 330.721 160.498 330.16 157.498 327.892L157.249 327.615C148.675 318.027 119.944 286.746 110.214 286.746C109.066 286.746 108.174 287.15 107.56 287.952C106.26 289.649 106.326 293.062 107.762 298.386C108.615 301.553 116.75 305.919 125.363 310.543C132.54 314.395 139.962 318.38 142.476 321.367C144.733 324.047 147.702 327.759 147.434 329.045C147.362 329.394 146.984 329.597 146.321 329.927C144.821 330.673 142.552 331.801 143.761 337.102C144.597 340.766 146.865 344.407 149.059 347.929C151.102 351.211 153.032 354.308 153.818 357.322C155.974 365.58 142.434 380.753 133.475 390.791C130.52 394.103 127.968 396.964 126.344 399.117C119.817 407.778 111.684 415.793 103.818 423.545C88.5184 438.624 72.6981 454.216 67.1336 475.749C58.8197 507.919 57.162 536.328 62.2065 560.184C64.8966 572.915 74.1686 590.667 83.158 590.667C88.7578 590.667 92.8358 583.941 95.2777 570.671C104.684 519.565 130.347 502.56 155.164 486.115C177.153 471.546 197.922 457.783 206.857 422.046C210.225 408.561 205.042 387.828 198.309 376.35C195.305 371.228 191.518 368.348 187.859 365.564C184.642 363.118 181.605 360.807 179.258 357.121C177.594 354.508 177.89 351.466 178.204 348.245C178.527 344.916 178.861 341.473 176.837 338.557Z" fill="white"/>
<path d="M0 229.5C56.6514 261.561 117.706 312.566 128.821 337.917C135.497 353.143 119.314 371.336 98.828 394.368C75.5476 420.541 46.5746 453.116 44.7727 492.212C42.5756 539.87 18.9564 559.444 0 565.362V566.59C19.3916 560.683 43.7075 540.856 45.9473 492.267C47.7303 453.585 76.5495 421.185 99.7066 395.15C120.474 371.803 136.877 353.36 129.898 337.443C118.699 311.902 57.0615 260.454 0 228.245V229.5Z" fill="white"/>
<path d="M285.377 0.0943298C285.405 0.0624084 285.435 0.0321655 285.464 0.000244141H284.777C283.722 1.1208 282.658 2.30859 281.926 4.02386C279.836 8.92444 280.431 14.035 281.003 18.9775C281.324 21.731 281.654 24.5787 281.521 27.3658C281.311 31.7439 280.419 36.2882 279.555 40.6848C278.845 44.3136 278.107 48.0651 277.754 51.7191C275.601 73.9371 277.546 94.0315 283.537 111.443C284.78 115.055 289.65 120.612 294.805 126.496C301.395 134.021 308.211 141.801 308.483 146.525C308.544 147.578 308.273 148.408 307.655 149.062C305.874 150.95 301.098 151.296 293.464 150.086C287.912 149.206 282.578 146.888 277.417 144.645C274.404 143.336 271.29 141.982 268.18 140.939C267.301 140.645 266.391 140.342 265.455 140.035C254.285 136.347 238.987 131.299 236.794 122.454C235.749 118.237 237.799 113.417 242.886 108.128C250.906 99.7906 259.199 91.1722 264.812 78.085C270.191 65.5438 276.382 41.13 274.011 27.9168C273.526 25.2086 272.397 23.3825 271.303 21.6151C269.84 19.2497 268.457 17.017 269.091 12.9665C269.556 9.98283 270.717 8.23561 271.742 6.6917C272.968 4.84201 274.042 3.16704 273.744 0.000244141H273.242C273.541 3.0108 272.545 4.5715 271.322 6.41278C270.268 7.9987 269.075 9.79636 268.592 12.8892C267.93 17.1228 269.359 19.4328 270.873 21.8806C271.943 23.6076 273.047 25.3935 273.516 28.0059C275.868 41.1216 269.704 65.4027 264.348 77.8867C258.772 90.8883 250.511 99.4747 242.523 107.779C237.307 113.2 235.215 118.18 236.305 122.576C238.565 131.69 254.016 136.789 265.297 140.514C266.233 140.823 267.143 141.124 268.019 141.416C271.108 142.452 274.215 143.803 277.217 145.107C282.405 147.363 287.769 149.695 293.385 150.584C296.387 151.061 298.981 151.303 301.095 151.303C304.552 151.303 306.818 150.683 308.023 149.406C308.73 148.658 309.054 147.679 308.986 146.495C308.703 141.599 301.83 133.753 295.184 126.165C290.062 120.318 285.225 114.798 284.014 111.278C278.047 93.9358 276.11 73.9135 278.255 51.7678C278.606 48.1373 279.34 44.3976 280.051 40.7822C280.916 36.3689 281.812 31.8043 282.025 27.391C282.159 24.5618 281.827 21.6924 281.506 18.9204C280.913 13.8183 280.352 9.00002 282.391 4.22041C283.14 2.46146 284.278 1.25858 285.377 0.0943298Z" fill="white"/>
<path d="M230.266 9.44647C240.897 42.5542 251.891 76.7876 210.371 100.786C204.165 104.373 197.205 107.004 189.687 108.603C183.622 109.895 177.04 110.549 170.124 110.549C113.993 110.549 43.7805 68.8076 0 42.2031V43.579C43.9261 70.2625 113.931 111.727 170.124 111.727C177.122 111.727 183.787 111.063 189.931 109.754C197.571 108.128 204.646 105.453 210.959 101.804C253.3 77.3302 242.159 42.6382 231.385 9.08693C230.405 6.03437 229.434 3.00368 228.509 -0.000160217H227.277C228.236 3.12128 229.246 6.27296 230.266 9.44647Z" fill="white"/>
<path d="M15.6975 349.746C14.8693 344.329 11.132 339.489 4.27219 334.947C2.86584 334.016 1.45097 333.075 0 332.097V332.702C1.34466 333.604 2.67684 334.495 3.99328 335.367C10.7277 339.825 14.3942 344.554 15.1988 349.821C16.5309 358.534 9.91265 367.52 1.78697 377.519C1.23703 378.195 0.631312 379.026 0 379.918V380.795C0.781593 379.67 1.51791 378.648 2.17743 377.837C10.3812 367.742 17.0612 358.66 15.6975 349.746Z" fill="white"/>
<path d="M30.5589 355.433C34.9264 343.164 30.5327 338.233 10.7592 325.137C9.18947 324.097 7.61185 323.052 5.99681 321.96C3.92372 320.558 1.94972 319.217 0 317.88V318.491C1.86112 319.765 3.74719 321.046 5.73235 322.39C7.33097 323.471 8.90991 324.517 10.4803 325.557C29.9919 338.478 34.335 343.321 30.0851 355.263C26.2362 366.077 18.793 375.236 10.9121 384.938C7.24566 389.449 3.50569 394.059 0 398.982V399.854C3.61462 394.723 7.49897 389.936 11.3046 385.253C19.2123 375.52 26.6811 366.327 30.5589 355.433Z" fill="white"/>
<path d="M164.062 423.632C163.458 426.56 161.706 430.162 159.255 433.516C156.699 437.005 151.463 442.883 145.097 443.021L145.035 443.443V443.023C144.932 443.023 144.83 443.016 144.729 443.004C144.126 442.934 144.023 442.673 143.988 442.588C143.805 442.124 143.831 440.506 148.036 435.517L148.165 435.365C149.192 434.127 150.198 432.871 151.204 431.616C152.749 429.687 154.348 427.689 156.004 425.803C156.305 425.46 156.656 425.018 157.046 424.529C158.61 422.567 160.975 419.605 163.036 419.605H163.038C163.379 419.619 163.628 419.74 163.82 419.985C164.401 420.728 164.314 422.413 164.062 423.632ZM163.071 418.765L162.96 418.764C160.571 418.764 158.154 421.793 156.39 424.007C156.008 424.484 155.666 424.914 155.372 425.248C153.704 427.15 152.1 429.153 150.548 431.091C149.546 432.343 148.543 433.595 147.519 434.826L147.394 434.976C144.041 438.954 142.672 441.544 143.207 442.897C143.355 443.27 143.722 443.733 144.631 443.839C144.763 443.854 144.899 443.863 145.035 443.863L145.116 443.861C151.842 443.715 157.286 437.627 159.932 434.011C162.452 430.566 164.258 426.844 164.884 423.804C165.031 423.095 165.435 420.685 164.482 419.467C164.14 419.031 163.652 418.787 163.071 418.765Z" fill="white"/>
<path d="M284.653 560.767C278.201 557.831 270.62 556.403 261.475 556.403C242.432 556.403 220.186 562.803 200.56 568.45C184.602 573.041 169.529 577.377 159.088 577.379C152.942 577.379 148.775 575.901 146.345 572.86C143.401 569.176 142.925 563.168 144.89 554.494C149.136 535.739 173.408 513.208 194.823 493.33C207.84 481.25 220.136 469.836 226.585 460.56C247.246 430.844 254.041 377.93 231.229 346.52C225.466 338.586 215.694 330.698 205.346 322.348C183.317 304.571 158.349 284.422 168.392 258.873C173.107 246.873 184.672 241.406 196.915 235.617C204.57 231.998 212.485 228.255 218.748 222.748C224.174 217.977 228.534 213.311 232.751 208.801C243.585 197.209 252.143 188.054 270.011 188.054C272.827 188.054 275.885 188.284 279.097 188.74C323.97 195.098 376.456 204.841 431.533 240.173C492.154 279.062 548.518 319.872 572.062 391.151C582.219 421.905 577.765 458.168 560.982 481.389C549.605 497.129 533.753 505.45 515.137 505.452C508.565 505.452 501.606 504.403 494.453 502.335C472.186 495.894 458.099 482.664 451.391 461.891C445.383 443.292 445.675 420.41 445.959 398.281C446.413 362.796 446.882 326.102 421.794 304.861C409.809 294.711 409.488 294.555 402.563 296.261C399.568 297.001 395.464 298.01 388.527 298.664C383.332 299.153 379.645 299.279 376.683 299.379C366.549 299.726 366.549 299.726 351.903 312.994L351.706 313.172C347.585 316.905 341.641 319.669 335.348 322.594C326.009 326.935 316.352 331.422 312.888 339.437C308.248 350.173 312.443 380.922 315.202 394.131C318.466 409.772 328.465 424.172 337.285 436.879L339.145 439.56C342.24 444.036 345.516 448.587 348.684 452.989C367.251 478.785 386.452 505.46 385.98 538.714C385.674 560.228 362.153 585.621 340.219 588.118C338.824 588.276 337.431 588.358 336.077 588.358C323.195 588.358 313.997 581.206 304.26 573.634C298.249 568.961 292.034 564.127 284.653 560.767ZM340.314 588.951C362.605 586.416 386.509 560.599 386.82 538.727C387.295 505.195 368.014 478.405 349.366 452.498C346.199 448.1 342.927 443.552 339.835 439.08L337.976 436.4C329.201 423.76 319.254 409.435 316.023 393.96C313.283 380.836 309.098 350.322 313.659 339.772C316.996 332.049 326.506 327.63 335.703 323.355C342.055 320.401 348.056 317.614 352.271 313.794L352.467 313.616C366.885 300.554 366.885 300.554 376.712 300.219C379.685 300.119 383.386 299.991 388.606 299.5C395.605 298.84 399.743 297.822 402.765 297.078C404.687 296.604 406.075 296.263 407.308 296.263C410.34 296.263 412.87 298.405 421.253 305.503C446.037 326.488 445.571 362.981 445.119 398.271C444.552 442.682 443.965 488.605 494.221 503.142C501.448 505.232 508.486 506.292 515.137 506.292C534.033 506.29 550.121 497.85 561.663 481.881C578.597 458.452 583.096 421.885 572.858 390.889C549.229 319.348 492.741 278.44 431.987 239.467C376.767 204.043 324.176 194.28 279.216 187.908C275.964 187.448 272.867 187.214 270.011 187.214C251.778 187.214 243.111 196.486 232.137 208.226C227.934 212.723 223.588 217.374 218.193 222.116C212.019 227.546 204.159 231.264 196.557 234.857C184.158 240.719 172.449 246.256 167.609 258.567C157.342 284.69 182.564 305.044 204.819 323.004C215.121 331.316 224.851 339.169 230.55 347.014C253.153 378.135 246.391 430.601 225.895 460.08C219.497 469.283 207.235 480.665 194.252 492.716C172.748 512.676 148.374 535.3 144.071 554.306C142.046 563.249 142.575 569.486 145.688 573.384C148.288 576.637 152.671 578.219 159.088 578.219C169.646 578.217 184.775 573.865 200.792 569.258C220.366 563.625 242.55 557.243 261.475 557.243C270.497 557.243 277.964 558.645 284.305 561.532C291.596 564.851 297.772 569.653 303.746 574.298C313.599 581.959 322.906 589.198 336.077 589.198C337.463 589.198 338.888 589.114 340.314 588.951Z" fill="white"/>
<path d="M330.357 663.693C328.603 660.326 326.945 657.147 328.142 654.568C329.938 650.706 333.313 650.121 336.576 649.554C339.19 649.098 341.893 648.63 343.503 646.398C346.115 642.777 347.375 638.439 348.595 634.245C350.276 628.456 351.866 622.987 356.773 619.875C363.434 615.651 369.155 614.947 374.687 614.267C382.274 613.333 389.439 612.453 397.579 602.495C408.1 589.623 415.835 569.32 418.269 548.182C423.182 505.499 397.98 473.642 375.745 445.538C356.299 420.958 339.506 399.731 346.507 376.656C353.961 352.083 374.576 339.226 391.087 339.226C399.707 339.226 407.146 342.44 412.599 348.524C420.396 357.222 423.499 371.141 421.569 388.774C416.489 435.14 418.221 492.395 477.19 523.846C496.292 534.032 516.017 538.984 537.496 538.983C565.024 538.983 590.548 530.757 613.069 523.498C631.233 517.643 646.921 512.587 660.586 512.587C678.542 512.587 690.218 521.502 698.448 541.489C718.958 591.298 699.226 632.77 685.638 653.06C663.754 685.739 631.06 705.267 612.096 705.267C606.295 705.267 601.799 703.587 598.737 700.273C569.516 668.665 532.125 652.64 487.598 652.64C474.017 652.64 459.518 654.13 444.506 657.07C437.967 658.352 430.873 659.462 423.36 660.638C404.246 663.63 382.585 667.02 366.799 674.179C363.367 675.735 358.114 680.86 352.027 686.796C343.093 695.512 332.966 705.388 326.869 705.388C326.328 705.388 325.824 705.306 325.372 705.145C322.677 704.175 321.049 702.742 320.393 700.764C318.716 695.701 323.858 687.942 327.99 681.707C330.468 677.967 332.608 674.739 333.013 672.58C333.535 669.792 331.919 666.691 330.357 663.693ZM327.181 681.171C322.934 687.58 317.647 695.559 319.474 701.069C320.218 703.317 322.093 704.995 325.045 706.057C325.602 706.257 326.217 706.357 326.869 706.357C333.361 706.357 343.637 696.333 352.704 687.49C358.473 681.862 363.923 676.546 367.199 675.061C382.863 667.958 404.458 664.576 423.511 661.596C431.031 660.417 438.135 659.306 444.692 658.023C459.644 655.091 474.079 653.607 487.598 653.607C531.844 653.607 568.996 669.529 598.024 700.93C601.279 704.449 606.013 706.235 612.096 706.235C631.048 706.235 663.548 687.787 686.444 653.599C700.138 633.15 720.024 591.345 699.343 541.123C691.056 520.993 678.742 511.619 660.586 511.619C646.768 511.619 631.013 516.698 612.77 522.578C590.32 529.813 564.871 538.015 537.496 538.015C516.181 538.015 496.604 533.099 477.647 522.991C419.19 491.813 417.485 434.944 422.53 388.88C424.492 370.966 421.307 356.787 413.318 347.876C407.679 341.583 399.991 338.256 391.087 338.256C374.218 338.256 353.171 351.35 345.579 376.376C338.432 399.934 355.372 421.346 374.986 446.139C397.103 474.096 422.172 505.786 417.307 548.07C414.894 569.031 407.239 589.149 396.828 601.882C388.935 611.538 381.956 612.397 374.569 613.306C368.93 614 363.098 614.715 356.256 619.056C351.038 622.366 349.399 628.006 347.664 633.975C346.468 638.089 345.231 642.346 342.716 645.831C341.339 647.742 338.945 648.159 336.411 648.598C333.065 649.18 329.275 649.839 327.265 654.162C325.866 657.172 327.711 660.714 329.497 664.14C330.985 666.994 332.522 669.944 332.062 672.402C331.692 674.365 329.602 677.52 327.181 681.171Z" fill="white"/>
<path d="M466.126 578.979C469.338 577.196 472.629 576.331 476.187 576.331C482.716 576.331 489.197 579.325 495.464 582.221L496.951 582.908C500.551 584.561 504.186 585.366 508.064 585.366C512.786 585.366 517.391 584.193 522.265 582.953C523.491 582.641 524.741 582.323 526.016 582.019C528.758 581.362 531.401 581.042 534.097 581.042C542.259 581.042 549.703 584.151 556.53 587.51C559.999 589.216 563.369 590.046 566.829 590.046C571.907 590.046 576.452 588.286 581.263 586.421C584.825 585.04 588.509 583.614 592.569 582.866C596.26 582.187 599.916 581.756 603.451 581.339C612.582 580.264 621.207 579.246 629.968 574.285C631.016 573.69 632.011 573.097 632.973 572.522C637.116 570.046 640.695 567.906 645.372 567.906C646.822 567.906 648.307 568.104 649.913 568.509C654.373 569.636 657.444 572.516 659.044 577.068C664.702 593.181 650.948 625.681 643.388 635.672C637.914 642.903 630.872 646.96 623.552 647.094L623.176 647.098C615.888 647.098 608.864 643.119 603.4 635.893C600.649 632.255 598.542 627.85 596.311 623.184C591.637 613.413 586.804 603.31 575.622 600.67C574.231 600.343 572.981 600.182 571.803 600.182C567.707 600.182 565.348 602.122 562.617 604.368C560.977 605.718 559.282 607.112 556.995 608.278C554.155 609.726 551.362 610.43 548.458 610.43C542.349 610.43 536.884 607.34 531.1 604.069C525.351 600.817 519.406 597.455 512.796 597.455L512.378 597.46C509.141 597.529 506.409 598.203 503.765 598.853C501.315 599.456 499 600.025 496.552 600.025C494.116 600.025 491.855 599.47 489.431 598.272C488.411 597.769 487.449 597.228 486.519 596.706C483.905 595.236 481.436 593.847 478.551 593.847C477.029 593.847 475.497 594.226 473.869 595.006C472.582 595.62 471.116 597.077 469.562 598.621C467.089 601.077 464.283 603.862 461.644 603.862C461.015 603.862 460.429 603.71 459.856 603.394C457.788 602.255 456.738 600.184 456.733 597.234C456.723 590.29 462.581 580.944 466.126 578.979ZM459.45 604.13C460.144 604.51 460.881 604.702 461.644 604.702C464.629 604.702 467.566 601.788 470.153 599.218C471.655 597.726 473.074 596.317 474.23 595.764C475.746 595.039 477.157 594.687 478.551 594.687C481.217 594.687 483.482 595.962 486.108 597.436C487.047 597.966 488.018 598.512 489.06 599.028C491.568 600.264 494.019 600.865 496.552 600.865C499.103 600.865 501.465 600.286 503.965 599.668C506.564 599.029 509.252 598.368 512.395 598.3L512.796 598.295C519.184 598.295 525.032 601.603 530.687 604.798C536.311 607.98 542.127 611.27 548.458 611.27C551.499 611.27 554.417 610.536 557.375 609.027C559.746 607.819 561.555 606.33 563.151 605.019C565.757 602.873 568.008 601.022 571.803 601.022C572.914 601.022 574.101 601.175 575.428 601.487C586.219 604.036 590.965 613.954 595.553 623.547C597.704 628.044 599.93 632.693 602.732 636.399C608.356 643.84 615.617 647.938 623.176 647.938L623.569 647.934C631.151 647.795 638.427 643.618 644.056 636.178C651.7 626.077 665.587 593.167 659.837 576.791C658.137 571.954 654.869 568.895 650.121 567.696C648.445 567.272 646.892 567.066 645.372 567.066C640.461 567.066 636.792 569.261 632.543 571.8C631.586 572.371 630.596 572.964 629.555 573.552C620.938 578.431 612.395 579.437 603.353 580.506C599.804 580.924 596.136 581.357 592.418 582.04C588.279 582.801 584.558 584.244 580.961 585.638C576.223 587.471 571.749 589.206 566.829 589.206C563.5 589.206 560.251 588.403 556.9 586.755C549.981 583.352 542.432 580.202 534.097 580.202C531.333 580.202 528.627 580.529 525.82 581.201C524.541 581.509 523.288 581.826 522.058 582.14C517.237 583.367 512.682 584.526 508.064 584.526C504.311 584.526 500.789 583.746 497.302 582.144L495.815 581.458C489.468 578.523 482.901 575.491 476.187 575.491C472.483 575.491 469.059 576.391 465.719 578.243C461.511 580.576 455.883 590.394 455.893 597.235C455.898 600.468 457.13 602.851 459.45 604.13Z" fill="white"/>
<path d="M358.29 654.054C365.185 649.774 374.626 643.907 384.048 635.509C398.329 622.776 410.073 606.744 418.951 587.857C424.537 575.976 428.161 563.067 429.724 549.495C435.177 502.078 407.237 466.763 384.782 438.381C367.347 416.341 352.287 397.307 357.537 380.003C363.362 360.8 378.825 350.754 391.087 350.754C396.414 350.754 400.764 352.592 404.015 356.219C409.485 362.321 411.65 373.437 410.108 387.519C405.06 433.6 405.962 498.922 471.767 534.017C492.579 545.117 514.08 550.511 537.496 550.511C566.842 550.511 593.28 541.988 616.629 534.464C633.859 528.91 648.737 524.117 660.586 524.117C670.061 524.117 679.913 526.752 687.788 545.879C706.26 590.735 688.368 628.266 676.06 646.645C660.581 669.759 634.504 688.565 617.927 688.565C613.499 688.565 609.894 687.265 607.212 684.699C588.248 666.547 570.603 655.007 551.678 648.382C535.391 642.684 517.43 640.252 491.627 640.252C463.792 640.252 434.816 644.759 410.034 652.942C380.526 662.688 361.626 663.445 356.536 663.445C354.134 663.445 352.244 663.3 351.21 663.033C349.663 662.634 348.833 662.143 348.746 661.574C348.524 660.119 352.622 657.576 358.29 654.054ZM351.084 663.521C352.158 663.798 354.093 663.949 356.536 663.949C361.645 663.949 380.614 663.19 410.192 653.421C434.927 645.253 463.846 640.756 491.627 640.756C537.355 640.756 567.736 647.607 606.865 685.062C609.643 687.72 613.366 689.069 617.927 689.069C634.936 689.069 660.653 670.558 676.48 646.924C688.843 628.463 706.814 590.76 688.255 545.689C680.265 526.287 670.236 523.611 660.586 523.611C648.658 523.611 633.743 528.417 616.451 533.992C593.159 541.498 566.763 550.007 537.496 550.007C514.164 550.007 492.742 544.631 472.002 533.572C406.467 498.619 405.577 433.509 410.61 387.575C412.168 373.347 409.957 362.092 404.389 355.883C401.039 352.145 396.564 350.25 391.087 350.25C378.638 350.25 362.95 360.419 357.055 379.857C351.73 397.414 366.863 416.543 384.392 438.699C406.785 467.003 434.653 502.228 429.221 549.436C427.666 562.956 424.057 575.81 418.494 587.644C409.644 606.468 397.941 622.447 383.712 635.133C374.324 643.503 364.902 649.356 358.023 653.628C351.758 657.517 347.976 659.866 348.249 661.651C348.371 662.458 349.273 663.054 351.084 663.521Z" fill="white"/>
<path d="M398.079 387.926C397.075 397.088 397.322 403.743 397.5 408.603C397.792 416.486 397.903 419.436 392.636 421.269C391.411 421.695 390.136 421.715 388.846 421.329C384.527 420.03 378.59 412.89 374.075 403.56C369.286 393.661 367.656 384.645 369.719 379.44C372.862 371.514 382.412 362.682 391.087 362.682C393.463 362.682 394.435 363.403 395.133 364.181C397.59 366.922 399.391 375.959 398.079 387.926ZM391.087 361.842C382.076 361.842 372.182 370.954 368.938 379.129C366.791 384.549 368.427 393.819 373.319 403.926C377.929 413.455 384.071 420.771 388.602 422.134C389.295 422.342 389.99 422.446 390.67 422.446C391.426 422.446 392.181 422.317 392.912 422.062C398.763 420.025 398.63 416.435 398.34 408.571C398.162 403.738 397.915 397.119 398.913 388.018C400.253 375.806 398.34 366.501 395.759 363.619C394.931 362.697 393.792 361.842 391.087 361.842Z" fill="white"/>
<path d="M595.399 600.072C597.118 599.743 598.756 599.432 600.345 599.132C609.455 597.408 616.654 596.043 627.344 593.085C628.668 592.719 629.822 592.532 630.775 592.532C632.04 592.532 632.952 592.857 633.486 593.497C634.209 594.355 634.16 595.659 633.992 596.598C632.345 605.843 630.939 611.115 626.944 617.912C625.775 619.901 624.664 621.225 623.05 621.225C621.714 621.225 620.038 620.358 617.926 618.572C613.813 615.096 607.954 611.281 600.975 607.542C600.294 607.177 599.722 606.856 599.191 606.557C597.805 605.779 596.711 605.166 594.814 604.403C593.553 603.896 592.877 603.098 592.963 602.219C593.06 601.228 594.083 600.326 595.399 600.072ZM594.453 605.302C596.291 606.041 597.361 606.643 598.717 607.402C599.251 607.703 599.831 608.027 600.518 608.395C607.436 612.104 613.239 615.879 617.298 619.311C619.594 621.252 621.476 622.194 623.05 622.194C625.357 622.194 626.701 620.239 627.781 618.404C631.85 611.478 633.28 606.132 634.946 596.769C635.149 595.623 635.19 594.019 634.23 592.874C633.017 591.425 630.613 591.177 627.085 592.151C616.434 595.101 609.254 596.459 600.163 598.181C598.574 598.479 596.934 598.792 595.216 599.121C593.46 599.457 592.138 600.694 591.999 602.125C591.938 602.759 592.054 604.336 594.453 605.302Z" fill="white"/>
<path d="M438.803 607.021C441.949 600.274 446.257 591.033 450.062 578.836C452.169 572.075 452.437 566.177 452.632 561.869C452.869 556.613 453.002 553.718 455.94 553.718C457.519 553.718 459.944 554.54 463.571 556.307C474.845 561.801 507.56 573.146 536.718 573.146C537.294 573.146 537.871 573.141 538.443 573.132C573.018 572.578 604.879 563.234 628.142 556.408C640.527 552.776 650.308 549.906 657.327 549.191C661.493 548.767 664.88 551.112 667.377 556.137C676.234 573.949 670.806 619.206 652.9 642.867C642.716 656.324 631.835 664.042 623.045 664.042C619.196 664.042 615.804 662.562 612.96 659.646C596.906 643.168 563.361 624.676 524.607 620.51C516.862 619.677 507.757 619.253 497.545 619.253C471.364 619.253 446.954 621.985 445.929 622.101C443.579 622.368 441.696 622.497 440.168 622.497C437.133 622.497 435.387 621.978 434.677 620.863C433.333 618.756 435.392 614.339 438.803 607.021ZM440.168 623.001C441.714 623.001 443.617 622.87 445.985 622.603C447.009 622.486 471.393 619.757 497.545 619.757C507.74 619.757 516.827 620.179 524.553 621.01C563.181 625.164 596.608 643.585 612.6 659.995C615.542 663.014 619.055 664.546 623.045 664.546C631.993 664.546 643.022 656.756 653.3 643.173C671.305 619.383 676.748 573.846 667.829 555.912C665.461 551.153 662.154 548.638 658.259 548.638C657.933 548.638 657.611 548.655 657.273 548.69C650.21 549.411 640.409 552.285 628.001 555.926C604.763 562.741 572.942 572.077 538.437 572.628C508.953 573.114 475.254 561.439 463.789 555.853C460.044 554.027 457.624 553.214 455.94 553.214C452.518 553.214 452.374 556.463 452.128 561.849C451.933 566.127 451.668 571.988 449.578 578.685C445.786 590.85 441.486 600.073 438.347 606.808C434.865 614.282 432.761 618.793 434.251 621.135C435.076 622.425 436.901 623.001 440.168 623.001Z" fill="white"/>
<path d="M405.475 631.02C423.133 613.771 434.707 595.051 439.869 575.381C444.021 559.566 442.831 547.35 442.322 542.132C442.213 540.995 442.132 540.17 442.139 539.683C442.186 535.797 443.829 535.347 445.059 535.347C447.827 535.347 452.511 538.035 457.934 541.146C460.794 542.788 464.034 544.646 467.404 546.351C489.169 557.362 510.785 562.271 537.496 562.271C568.695 562.271 596.064 553.447 620.216 545.662C636.513 540.41 650.587 535.876 660.586 535.876C665.446 535.876 670.952 535.876 676.916 550.356C692.071 587.167 677.215 617.647 668.338 635.856C667.605 637.362 666.91 638.786 666.271 640.134C659.319 654.795 635.932 679.108 623.312 679.106C621.356 679.106 619.75 678.5 618.537 677.305C597.294 656.423 575.311 642.746 551.331 635.495C529.954 629.032 510.115 628.491 491.627 628.491C458.969 628.491 431.632 632.468 408.053 640.646C406.022 641.35 404.074 641.738 402.57 641.738C401.433 641.738 399.989 641.518 399.563 640.47C399.163 639.488 399.398 636.957 405.475 631.02ZM402.57 642.242C404.131 642.242 406.135 641.846 408.216 641.121C431.743 632.961 459.025 628.995 491.627 628.995C532.232 628.995 572.467 632.716 618.183 677.666C619.495 678.957 621.22 679.61 623.312 679.61C623.312 679.61 623.312 679.61 623.314 679.61C636.1 679.61 659.723 655.117 666.726 640.35C667.365 639.005 668.059 637.58 668.791 636.076C677.705 617.79 692.624 587.185 677.381 550.165C671.289 535.37 665.602 535.37 660.586 535.37C650.508 535.37 636.399 539.918 620.058 545.183C595.945 552.957 568.614 561.767 537.496 561.767C510.868 561.767 489.322 556.874 467.631 545.901C464.271 544.202 461.039 542.346 458.185 540.709C452.474 537.432 447.964 534.843 445.059 534.843C442.794 534.843 441.674 536.425 441.633 539.676C441.627 540.192 441.709 541.027 441.821 542.183C444.928 574.071 432.58 603.839 405.124 630.66C400.329 635.344 398.301 638.709 399.096 640.661C399.517 641.696 400.719 642.242 402.57 642.242Z" fill="white"/>
<path d="M312.275 6.86646e-05H311.04C308.457 9.05359 306.646 18.9723 305.574 29.8654C303.709 48.8091 302.066 73.6227 305.947 97.5409C308.774 114.973 314.451 122.748 324.349 122.748C324.351 122.748 324.351 122.748 324.353 122.748C330.675 122.746 338.02 119.682 346.524 116.137C352.434 113.671 358.544 111.122 365.078 109.276C365.704 109.098 366.326 108.926 366.959 108.757C385.56 103.772 406.525 103.066 428.768 106.668C434.737 107.634 440.785 109.304 446.635 110.92C455.164 113.276 463.983 115.712 472.937 116.107C477.792 116.32 481.248 115.828 483.696 114.611C490.841 111.055 487.366 102.164 483.687 92.7529C481.513 87.1854 479.264 81.4313 478.894 76.2687C476.93 48.8561 492.247 23.8678 512.491 6.86646e-05H510.944C490.856 23.8292 475.749 48.8225 477.722 76.351C478.103 81.6934 480.384 87.5314 482.594 93.1796C486.221 102.463 489.352 110.48 483.172 113.558C480.939 114.668 477.56 115.13 472.989 114.931C464.167 114.542 455.413 112.125 446.949 109.786C441.069 108.163 434.989 106.483 428.955 105.506C406.547 101.879 385.416 102.591 366.655 107.621C366.015 107.792 365.39 107.964 364.758 108.143C358.156 110.01 352.012 112.572 346.072 115.05C337.682 118.548 330.438 121.57 324.353 121.57C315.143 121.572 309.826 114.102 307.108 97.3527C303.249 73.5689 304.887 48.8545 306.743 29.9797C307.822 19.0295 309.653 9.07543 312.275 6.86646e-05Z" fill="white"/>
<path d="M331.912 526.66C331.316 527.424 330.552 527.797 329.577 527.797C326.896 527.797 322.889 525.101 317.817 521.689C308.861 515.663 296.594 507.41 281.766 507.41C279.93 507.41 278.075 507.54 276.256 507.795C271.983 508.393 269.426 508.65 267.706 508.65C266.087 508.65 265.166 508.417 264.968 507.958C264.402 506.646 268.313 502.5 274.235 496.223L276.029 494.318C282.22 487.743 285.783 481.271 288.385 476.545C290.734 472.283 292.285 469.466 294.141 469.466C294.865 469.466 295.685 469.889 296.646 470.763C311.714 484.428 340.159 516.071 331.912 526.66ZM297.21 470.14C296.088 469.122 295.083 468.626 294.141 468.626C291.787 468.626 290.141 471.616 287.649 476.141C285.069 480.826 281.534 487.244 275.417 493.745L273.623 495.647C266.612 503.079 263.412 506.473 264.197 508.292C264.554 509.121 265.636 509.49 267.706 509.49C269.467 509.49 272.059 509.232 276.373 508.628C278.154 508.378 279.968 508.25 281.766 508.25C296.338 508.25 308.481 516.422 317.347 522.386C322.538 525.877 326.639 528.637 329.577 528.637C330.812 528.637 331.82 528.145 332.574 527.176C341.876 515.232 309.342 481.142 297.21 470.14Z" fill="white"/>
<path d="M320.632 512.096C320.685 512.806 320.551 513.067 320.465 513.159C320.437 513.191 320.349 513.285 320.047 513.285C318.676 513.285 315.644 511.466 312.131 509.359C305.332 505.283 296.021 499.699 287.043 499.541C285.709 499.516 285.12 498.992 285.13 497.834C285.165 493.908 292.206 485.327 297.446 485.327C298.047 485.327 298.602 485.451 299.094 485.696C305.799 489.048 320.069 504.779 320.632 512.096ZM297.446 484.151C291.566 484.151 283.994 493.419 283.954 497.824C283.937 499.627 285.056 500.68 287.021 500.715C295.685 500.872 304.841 506.36 311.526 510.369C315.487 512.744 318.352 514.463 320.047 514.463C320.588 514.463 321.018 514.293 321.329 513.959C321.717 513.541 321.873 512.9 321.804 512.008C321.183 503.934 305.844 487.756 299.62 484.643C298.963 484.315 298.232 484.151 297.446 484.151Z" fill="white"/>
<path d="M245.401 293.36C234.753 287.488 229.392 282.162 229.009 277.075C228.507 270.391 236.406 264.338 245.554 257.327C248.551 255.03 251.649 252.655 254.683 250.093C273.705 234.015 281.835 231.186 291.883 231.186C294.776 231.186 297.803 231.437 301.308 231.724L302.952 231.858C341.055 234.933 368.748 250.054 370.178 252.675C370.467 253.204 370.406 253.471 370.336 253.624C369.973 254.421 367.864 254.879 364.373 255.637C356.508 257.347 341.87 260.527 319.917 272.78C298.159 284.924 284.138 307.767 279.894 325.019C278.861 329.223 277.803 331.266 276.66 331.266C275.019 331.266 272.81 327.302 270.016 322.286C265.095 313.459 257.663 300.118 245.401 293.36ZM276.659 331.77C276.66 331.77 276.66 331.77 276.66 331.77C278.109 331.77 279.258 329.725 280.383 325.14C284.602 307.994 298.536 285.291 320.162 273.22C342.049 261.005 356.64 257.834 364.479 256.129C368.372 255.284 370.326 254.859 370.794 253.833C370.976 253.438 370.919 252.981 370.62 252.433C369.114 249.675 341.992 234.503 302.994 231.356L301.348 231.222C297.834 230.933 294.798 230.682 291.883 230.682C281.711 230.682 273.5 233.53 254.357 249.707C251.334 252.262 248.238 254.634 245.246 256.927C235.983 264.025 227.984 270.157 228.507 277.112C228.908 282.456 234.2 287.759 245.159 293.8C257.292 300.49 264.684 313.755 269.574 322.533C272.676 328.094 274.722 331.768 276.659 331.77Z" fill="white"/>
<path d="M227.751 298.019C215.771 289.63 210.116 282.736 209.958 276.32C209.758 268.222 218.22 261.655 228.933 253.339C233.775 249.581 238.783 245.695 243.657 241.162C263.343 222.857 273.21 217.276 285.885 217.276C288.162 217.276 290.684 217.458 293.595 217.829C319.601 221.144 346.695 229.078 376.426 242.085C383.478 245.171 391.816 248.922 400.167 253.346C401.108 253.843 402.548 254.471 404.216 255.199C409.75 257.608 418.112 261.25 419.148 264.98C419.44 266.028 419.38 266.831 418.972 267.369C418.431 268.079 417.349 268.229 416.536 268.229C414.782 268.229 412.652 267.557 411.457 266.893C409.901 266.03 408.766 264.422 407.665 262.868C406.051 260.585 404.383 258.226 401.317 257.966C398.155 257.689 397.093 259.303 396.055 260.85C395.358 261.889 394.697 262.87 393.431 263.37C392.665 263.673 391.962 263.819 391.28 263.819C389.479 263.819 388.113 262.762 386.667 261.643C385.273 260.566 383.833 259.451 381.847 259.1C381.454 259.029 381.042 258.994 380.629 258.994C377.15 258.994 373.484 261.464 369.939 263.852C367.161 265.724 364.536 267.491 362.02 268.155C349.057 271.57 337.992 275.868 328.19 281.289C296.401 298.869 286.897 331.78 282.515 355.008C281.867 358.44 280.99 360.11 279.834 360.11C277.575 360.11 273.956 354.317 268.946 346.302C260.348 332.538 247.351 311.739 227.751 298.019ZM279.834 360.614C281.292 360.614 282.302 358.862 283.011 355.1C287.374 331.975 296.831 299.208 328.433 281.731C338.199 276.328 349.226 272.048 362.147 268.642C364.746 267.957 367.53 266.082 370.22 264.269C373.702 261.924 377.304 259.498 380.629 259.498C381.014 259.498 381.393 259.53 381.758 259.594C383.623 259.925 385.014 261.002 386.36 262.041C387.875 263.216 389.306 264.323 391.28 264.323C392.028 264.323 392.791 264.165 393.614 263.839C395.028 263.281 395.762 262.188 396.473 261.131C397.479 259.632 398.42 258.226 401.275 258.468C404.105 258.708 405.634 260.87 407.254 263.159C408.386 264.76 409.555 266.414 411.212 267.333C412.425 268.007 414.609 268.733 416.536 268.733C417.885 268.733 418.839 268.377 419.373 267.674C419.882 267.004 419.97 266.053 419.634 264.844C418.533 260.884 410.039 257.185 404.42 254.735C402.76 254.013 401.327 253.389 400.404 252.901C392.036 248.469 383.69 244.714 376.627 241.624C346.853 228.598 319.714 220.65 293.659 217.328C290.727 216.954 288.184 216.772 285.885 216.772C273.059 216.772 263.111 222.385 243.314 240.793C238.456 245.31 233.458 249.189 228.624 252.941C217.798 261.343 209.247 267.98 209.454 276.333C209.615 282.922 215.339 289.945 227.462 298.432C246.978 312.094 259.941 332.84 268.519 346.569C273.805 355.026 277.294 360.614 279.834 360.614Z" fill="white"/>
<path d="M291.025 545.919C284.169 542.8 276.017 541.281 266.104 541.281C247.736 541.281 226.982 546.694 210.304 551.043C198.465 554.131 188.239 556.797 181.853 556.799C181.852 556.799 181.85 556.799 181.848 556.799C178.416 556.799 176.296 556.033 175.372 554.454C174.072 552.238 175.029 548.317 178.298 542.469C186.079 528.558 199.722 516.064 212.917 503.978C223.751 494.056 233.984 484.685 241.009 474.733C255.352 454.415 263.816 431.249 265.487 407.739C267.397 380.859 260.491 355.298 244.959 331.766C239.434 323.395 229.171 316.361 219.245 309.557C200.75 296.88 183.28 284.906 196.209 265.58C202.801 255.726 208.804 252.037 215.752 247.765C220.132 245.072 225.095 242.021 230.804 237.001C235.754 232.646 239.734 228.389 243.583 224.272C253.5 213.662 261.334 205.283 277.709 205.283C280.286 205.283 283.083 205.493 286.023 205.909C325.713 211.534 369.602 220.935 421.552 251.377C489.942 291.453 536.189 328.875 555.418 391.514C564.361 420.638 561.044 452.821 547.169 471.596C539.057 482.573 527.743 488.376 514.45 488.376C507.111 488.376 499.105 486.631 490.656 483.187C474.931 476.777 465.31 462.116 461.239 438.369C457.681 417.603 458.83 392.613 459.846 370.566C460.132 364.355 460.402 358.49 460.572 352.807C461.31 328.22 454.549 307.857 441.027 293.923C428.713 281.234 411.004 274.247 391.16 274.247C364.799 274.247 338.097 286.077 317.9 306.703C305.567 319.299 297.951 332.294 294.618 346.435C291.641 359.061 292.171 372.332 296.236 387.005C303.794 414.265 322.063 441.39 341.406 470.109C348.16 480.137 355.144 490.508 361.546 500.773C376.347 524.508 373.783 541.229 369.027 551.077C363.831 561.836 353.16 569.621 341.841 570.908C340.561 571.054 339.284 571.128 338.043 571.128C326.233 571.128 317.817 564.583 308.907 557.656C303.423 553.39 297.752 548.98 291.025 545.919ZM341.899 571.41C353.385 570.103 364.211 562.207 369.481 551.295C374.292 541.335 376.896 524.436 361.975 500.507C355.567 490.234 348.58 479.86 341.825 469.827C322.505 441.145 304.256 414.051 296.723 386.87C288.201 356.126 295.045 330.765 318.261 307.055C338.362 286.526 364.933 274.751 391.16 274.751C410.866 274.751 428.447 281.684 440.666 294.274C454.092 308.109 460.801 328.343 460.068 352.793C459.898 358.472 459.628 364.335 459.342 370.543C458.328 392.616 457.175 417.635 460.742 438.452C464.843 462.386 474.565 477.172 490.464 483.654C498.975 487.123 507.046 488.88 514.45 488.88C527.908 488.88 539.364 483.007 547.576 471.895C561.54 452.999 564.887 420.637 555.902 391.366C536.624 328.571 490.301 291.08 421.808 250.943C369.781 220.456 325.834 211.043 286.094 205.412C283.132 204.992 280.311 204.779 277.709 204.779C261.114 204.779 253.216 213.229 243.215 223.927C239.375 228.037 235.403 232.285 230.471 236.621C224.794 241.614 219.85 244.653 215.489 247.336C208.49 251.639 202.443 255.355 195.791 265.301C182.584 285.041 200.253 297.152 218.96 309.974C228.845 316.749 239.067 323.755 244.539 332.044C278.947 384.174 265.064 439.782 240.598 474.44C233.604 484.351 223.39 493.703 212.577 503.609C199.352 515.72 185.679 528.242 177.86 542.223C174.495 548.241 173.537 552.325 174.937 554.711C175.96 556.455 178.221 557.303 181.848 557.303C181.85 557.303 181.852 557.303 181.853 557.303C188.305 557.301 198.558 554.629 210.43 551.531C227.081 547.19 247.802 541.785 266.104 541.785C275.806 541.785 284.122 543.331 290.816 546.38C297.489 549.416 303.136 553.807 308.596 558.052C317.577 565.036 326.06 571.632 338.043 571.632C339.303 571.632 340.6 571.558 341.899 571.41Z" fill="white"/>
<path d="M291.319 533.146C286.848 530.719 280.674 529.539 272.444 529.539C261.979 529.539 249.942 531.471 239.321 533.173C230.598 534.573 223.065 535.781 217.682 535.781H217.681C214.363 535.781 212.187 535.312 211.028 534.349C211.016 534.338 210.976 534.306 210.968 534.19C210.761 531.544 224.434 515.97 238.911 499.483C257.302 478.54 278.146 454.8 279.056 448.085C279.564 444.342 278 441.494 276.488 438.739C274.865 435.787 273.332 432.997 274.167 429.181C274.813 426.231 276.561 424.576 278.414 422.824C280.834 420.536 283.334 418.172 283.402 412.774C283.429 410.656 281.877 407.064 280.079 402.904C278.411 399.045 276.521 394.672 275.701 390.908C274.74 386.489 275.426 383.655 277.798 382.245C278.294 381.951 278.791 381.804 279.276 381.804C285.082 381.804 289.486 402.34 291.851 413.374C292.646 417.082 293.22 419.76 293.629 420.795C301.63 440.98 317.95 461.825 334.395 481.344C347.486 496.879 362.07 520.825 360.083 537.187C359.416 542.682 356.904 547.05 352.618 550.168C349.208 552.65 345.052 553.906 340.262 553.906C327.2 553.906 311.672 544.883 299.194 537.632C296.377 535.994 293.718 534.448 291.319 533.146ZM352.914 550.576C357.317 547.373 359.898 542.887 360.583 537.247C362.589 520.724 347.936 496.63 334.78 481.018C318.363 461.533 302.072 440.728 294.099 420.607C293.704 419.614 293.103 416.815 292.343 413.268C289.78 401.312 285.489 381.298 279.276 381.298C278.7 381.298 278.115 381.471 277.541 381.814C274.959 383.348 274.196 386.358 275.209 391.015C276.039 394.827 277.939 399.225 279.616 403.104C281.391 407.21 282.924 410.757 282.898 412.768C282.833 417.952 280.412 420.244 278.068 422.458C276.242 424.185 274.352 425.972 273.675 429.072C272.8 433.072 274.45 436.076 276.046 438.982C277.517 441.665 279.041 444.439 278.557 448.016C277.667 454.581 256.875 478.261 238.531 499.152C223.352 516.439 210.242 531.371 210.465 534.228C210.482 534.447 210.563 534.618 210.707 534.736C211.959 535.777 214.24 536.285 217.681 536.285H217.682C223.106 536.285 230.657 535.073 239.402 533.671C250.002 531.97 262.019 530.043 272.444 530.043C280.588 530.043 286.683 531.203 291.077 533.588C293.471 534.889 296.128 536.432 298.941 538.065C311.47 545.348 327.066 554.41 340.262 554.41C345.159 554.41 349.416 553.12 352.914 550.576Z" fill="white"/>
<path d="M332.695 540.629C332.694 540.629 332.694 540.629 332.692 540.629C322.3 540.629 308.962 533.146 299.945 526.144C293.4 521.06 285.413 518.591 275.527 518.591C268.299 518.591 261.263 519.881 255.056 521.02C250.315 521.888 246.221 522.641 243.003 522.641C240.253 522.641 238.459 522.095 237.355 520.917C236.87 520.4 236.651 519.846 236.688 519.222C236.835 516.8 240.796 513.483 246.281 508.89C259.557 497.774 281.776 479.169 285.465 444.76C285.907 440.649 286.586 438.814 287.668 438.814C289.501 438.814 292.859 443.437 298.423 451.1C304.327 459.228 313.249 471.512 326.051 485.928C333.416 494.222 348.145 515.77 346.666 529.438C346.27 533.089 344.721 535.92 342.063 537.853C339.531 539.695 336.38 540.629 332.695 540.629ZM347.165 529.492C348.665 515.657 333.841 493.942 326.427 485.594C313.642 471.196 304.728 458.924 298.83 450.803C292.98 442.747 289.758 438.308 287.668 438.308C286.235 438.308 285.454 440.163 284.967 444.708C281.296 478.912 259.175 497.436 245.959 508.504C240.169 513.351 236.344 516.553 236.186 519.192C236.141 519.95 236.41 520.647 236.987 521.262C238.194 522.547 240.104 523.147 243.003 523.147C246.264 523.147 250.382 522.389 255.147 521.515C261.332 520.38 268.345 519.093 275.527 519.093C285.298 519.093 293.183 521.531 299.636 526.54C308.72 533.595 322.174 541.133 332.692 541.133C332.694 541.133 332.694 541.133 332.695 541.133C336.487 541.133 339.741 540.167 342.36 538.262C345.137 536.239 346.755 533.291 347.165 529.492Z" fill="white"/>
<path d="M490.588 342.354C490.672 342.26 490.763 342.221 490.886 342.221C491.118 342.221 491.568 342.364 492.393 343.044C497.147 346.971 535.883 393.965 524.509 438.541C522.831 445.116 519.444 448.737 514.972 448.737H514.97C511.736 448.735 508.119 446.773 504.784 443.209C497.263 435.174 489.837 417.321 491.549 391.314C492.562 375.927 491.425 362.872 490.669 354.232C490.116 347.888 489.716 343.305 490.588 342.354ZM490.713 391.259C488.981 417.534 496.531 435.619 504.171 443.782C507.667 447.519 511.503 449.575 514.97 449.577H514.972C519.864 449.577 523.542 445.731 525.322 438.747C536.8 393.769 497.725 346.357 492.927 342.396C491.543 341.255 490.588 341.107 489.967 341.786C488.846 343.009 489.197 347.021 489.832 354.304C490.585 362.919 491.721 375.936 490.713 391.259Z" fill="white"/>
<path d="M476.352 315.887C476.512 315.707 476.718 315.623 477.007 315.623C478.057 315.623 480.008 316.781 482.615 318.518C499.664 329.885 544.967 381.709 532.197 439.412C529.828 450.117 521.88 457.032 511.946 457.032C504.949 457.032 497.955 453.64 492.252 447.485C481.261 435.621 476.273 415.128 478.21 389.78C480.693 357.317 478.089 336.875 476.69 325.895C475.969 320.233 475.534 316.816 476.352 315.887ZM477.71 389.74C475.759 415.23 480.792 435.859 491.882 447.829C497.681 454.089 504.808 457.536 511.946 457.536C511.946 457.536 511.946 457.536 511.948 457.536C522.125 457.536 530.268 450.465 532.689 439.52C539.765 407.539 528.815 378.768 518.386 360.261C506.127 338.515 490.444 323.131 482.892 318.098C480.136 316.258 478.188 315.119 477.007 315.119C476.576 315.119 476.229 315.265 475.974 315.554C475.005 316.655 475.401 319.764 476.189 325.959C477.587 336.922 480.186 357.329 477.71 389.74Z" fill="white"/>
<path d="M462.779 293.792C462.917 293.625 463.105 293.548 463.376 293.548C464.732 293.548 467.675 295.46 472.55 298.625C515.424 326.453 556.505 378.015 543.233 439.266C538.947 459.055 525.055 472.349 508.67 472.347C500.122 472.347 492.114 468.634 485.506 461.614C472.641 447.937 466.618 423.009 468.545 391.421C471.421 344.264 466.227 316.789 463.729 303.586C462.677 298.03 462.044 294.677 462.779 293.792ZM468.043 391.393C466.106 423.118 472.179 448.179 485.138 461.958C491.845 469.085 499.98 472.851 508.67 472.851H508.672C525.301 472.851 539.387 459.398 543.725 439.374C550.128 409.831 544.624 380.753 527.369 352.944C509.888 324.773 485.691 306.555 472.826 298.202C466.274 293.948 463.466 292.177 462.39 293.469C461.504 294.539 462.082 297.593 463.233 303.68C465.728 316.863 470.916 344.296 468.043 391.393Z" fill="white"/>
<path d="M261.09 273.119C264.606 263.354 295.643 249.974 310.523 249.974C311.043 249.974 311.547 249.989 312.03 250.021C314.944 250.219 316.226 250.429 316.757 250.597C316.127 251.034 314.471 251.758 312.859 252.462C305.583 255.646 292.038 261.571 285.474 273.968C281.344 281.77 278.325 284.809 274.705 284.809C271.758 284.809 268.15 282.863 262.641 278.306C260.868 276.839 260.361 275.142 261.09 273.119ZM274.707 285.985C279.468 285.985 282.87 281.402 286.514 274.517C292.884 262.483 306.185 256.665 313.33 253.541C316.949 251.958 318.303 251.365 318.13 250.374C317.985 249.541 317.054 249.186 312.11 248.848C297.229 247.839 263.834 262.03 259.983 272.72C259.093 275.196 259.751 277.44 261.892 279.211C267.629 283.959 271.461 285.985 274.705 285.985C274.705 285.985 274.705 285.985 274.707 285.985Z" fill="white"/>
<path d="M267.506 296.777C264.595 289.834 258.713 286.902 253.524 284.318C248.954 282.042 245.008 280.076 244.436 275.883C244.218 274.289 245.263 272.032 247.459 269.359C256.521 258.32 281.69 243.405 292.345 242.758C295.046 242.595 297.76 242.511 300.416 242.511C323.68 242.511 339.188 248.949 339.506 251.666C339.558 252.097 338.849 252.331 338.422 252.432C321.318 256.484 300.196 263.842 288.592 284.978C278.949 302.541 271.708 306.793 267.506 296.777ZM289.328 285.382C300.772 264.538 321.681 257.26 338.617 253.248C340.244 252.864 340.395 252.03 340.341 251.568C339.944 248.171 324.087 241.671 300.416 241.671C297.745 241.671 295.011 241.755 292.295 241.922C281.479 242.577 255.973 257.663 246.81 268.827C244.43 271.727 243.351 274.139 243.603 275.997C244.235 280.631 248.366 282.689 253.149 285.071C258.207 287.589 263.941 290.445 266.733 297.103C268.358 300.979 270.492 302.944 273.075 302.944C277.462 302.944 282.93 297.036 289.328 285.382Z" fill="white"/>
<path d="M504.246 388.579C504.679 387.835 505.144 387.388 505.489 387.388C505.793 387.388 506.092 387.763 506.241 387.988C514.547 400.354 514.727 421.299 511.651 427.066C511.236 427.846 510.782 428.276 510.378 428.276C509.853 428.274 509.17 427.601 508.501 426.428C499.965 411.467 501.193 393.836 504.246 388.579ZM510.376 429.45C510.378 429.45 510.378 429.45 510.378 429.45C511.263 429.45 512.041 428.835 512.689 427.619C515.96 421.487 515.9 400.255 507.219 387.333C506.09 385.656 504.456 385.873 503.229 387.988C499.968 393.604 498.599 411.447 507.48 427.013C508.402 428.63 509.378 429.45 510.376 429.45Z" fill="white"/>
<path d="M374.672 48.0664C376.925 48.0664 379.534 47.7287 382.649 47.0366C385.747 46.3495 388.672 45.6993 391.326 45.3415C395.82 44.7367 400.173 44.4847 404.045 44.2612C408.457 44.0075 412.422 42.8214 416.168 40.6324C431.811 31.4898 438.347 12.7864 440.431 5.16932C440.933 3.33476 441.432 1.63459 441.923 -4.57764e-05H441.397C440.918 1.59595 440.434 3.25243 439.945 5.03659C437.879 12.5932 431.397 31.1488 415.913 40.1973C412.239 42.3444 408.346 43.5086 403.986 43.7589C400.136 43.9824 395.773 44.2343 391.257 44.8425C388.584 45.2037 385.648 45.8555 382.54 46.5443C379.462 47.2281 376.888 47.5608 374.672 47.5608C370.958 47.5608 368.37 46.6082 366.763 44.6459C364.384 41.7412 364.043 36.5467 365.694 28.2929L365.965 26.9455C368.207 15.5853 372.055 6.83587 378.126 -4.57764e-05H377.461C371.504 6.84763 367.697 15.5668 365.471 26.8463L365.2 28.1937C363.517 36.6071 363.89 41.9361 366.373 44.9635C368.083 47.0501 370.798 48.0664 374.672 48.0664Z" fill="white"/>
<path d="M377.911 30.3357C379.203 32.8423 381.988 34.1157 386.192 34.1157C387.285 34.1157 388.492 34.0267 389.775 33.8536C394.701 33.19 399.296 32.9246 403.38 32.6877C404.594 32.6188 405.717 32.4358 406.815 32.125C408.033 31.7806 409.179 31.29 410.315 30.6247C419.402 25.3159 430.142 9.67847 430.498 -7.62939e-06H429.657C429.284 9.29207 418.602 24.8103 409.891 29.899C408.816 30.5273 407.734 30.991 406.587 31.3169C405.547 31.6092 404.485 31.7839 403.303 31.8511C399.234 32.0863 394.622 32.3534 389.663 33.0221C383.857 33.8033 380.103 32.76 378.659 29.951C376.7 26.1458 379.028 18.8126 384.737 10.8091C387.84 6.45789 392.036 2.92991 397.567 -7.62939e-06H395.81C390.829 2.84255 386.976 6.22442 384.055 10.3203C378.071 18.7068 375.776 26.1878 377.911 30.3357Z" fill="white"/>
<path d="M276.904 579.509C275.229 579.012 273.227 578.77 270.784 578.77C260.467 578.77 244.509 583.147 226.031 588.217C202.732 594.607 176.326 601.85 154.939 601.852C140.407 601.852 130.057 598.552 123.3 591.763C117.114 585.549 114.007 576.2 114.064 563.976C114.165 542.551 143.066 519.008 168.564 498.233C183.763 485.851 198.121 474.155 205.17 464.016C219.658 443.176 232.467 420.612 228.109 396.823C225.574 382.986 217.696 374.785 209.357 366.104C204.758 361.316 200.002 356.367 195.98 350.258C192.234 344.572 190.243 339.483 188.488 334.994C185.027 326.147 182.293 319.161 168.897 312.981C164.926 311.15 161.81 309.819 159.307 308.751C149.598 304.603 149.598 304.603 145.773 294.593C144.966 292.478 143.992 289.928 142.728 286.813C137.847 274.773 134.034 272.417 129.098 272.417C128.05 272.417 126.977 272.521 125.84 272.631C124.575 272.752 123.266 272.879 121.843 272.879C118.723 272.879 114.379 272.352 108.433 268.237C103.888 265.094 101.979 262.236 102.756 259.747C105.816 249.944 148.569 246.275 157.071 246.275C157.276 246.275 157.415 246.276 157.483 246.286L157.616 245.744L157.875 246.26C163.461 243.437 166.489 239.818 169.418 236.319C173.314 231.664 176.995 227.266 186.337 224.289C189.66 223.228 192.473 222.415 194.732 221.762C206.937 218.232 207.102 218.054 212.34 202.647L213.002 200.7C213.98 197.832 213.19 195.806 212.493 194.018C211.591 191.703 210.811 189.704 213.933 186.042C215.599 184.091 221.579 181.781 226.855 179.742C230.412 178.367 233.774 177.069 235.566 175.978C238.358 174.28 240.257 171.973 242.091 169.742C244.474 166.848 246.721 164.114 250.78 162.661C253.519 161.68 256.892 161.183 260.805 161.183C270.761 161.183 282.465 164.292 291.87 166.791C294.023 167.363 296.039 167.898 297.866 168.351C328.406 175.915 357.467 189.662 385.572 202.956L388.466 204.327C455.251 235.897 505.724 271.196 542.768 312.235C567.64 339.789 583.692 366.627 591.844 394.281C601.415 426.762 594.542 466.375 574.74 492.855C564.465 506.597 546.222 522.977 517.668 522.979C510.283 522.981 502.577 521.835 494.768 519.577C426.673 499.882 428.919 432.73 436.368 371.332C438.594 352.982 435.152 338.067 426.407 328.198C419.014 319.854 407.837 315.257 394.934 315.257C371.209 315.257 340.937 331.57 331.563 361.802C320.816 396.465 343.751 426.01 365.929 454.581C389.573 485.04 414.021 516.533 400.367 555.363C392.49 577.761 363.162 607.07 338.56 609.872C337.189 610.026 335.822 610.105 334.491 610.105C321.438 610.105 312.179 602.7 302.378 594.858C294.778 588.778 286.917 582.49 276.904 579.509ZM338.693 611.04C363.7 608.192 393.488 578.466 401.478 555.754C415.345 516.318 390.696 484.568 366.86 453.861C343.852 424.224 322.121 396.23 332.687 362.149C341.893 332.455 371.629 316.432 394.934 316.432C407.496 316.432 418.359 320.889 425.527 328.979C434.04 338.587 437.386 353.183 435.201 371.191C427.691 433.067 425.458 500.754 494.441 520.704C502.357 522.996 510.172 524.155 517.668 524.155C546.709 524.153 565.246 507.516 575.684 493.559C595.694 466.798 602.643 426.767 592.973 393.95C584.771 366.121 568.635 339.135 543.641 311.447C506.49 270.29 455.897 234.903 388.969 203.263L386.074 201.892C357.917 188.575 328.803 174.801 298.148 167.209C296.328 166.759 294.317 166.224 292.172 165.655C282.702 163.138 270.915 160.007 260.805 160.007C256.756 160.007 253.25 160.527 250.384 161.554C246.019 163.118 243.561 166.105 241.182 168.995C239.41 171.15 237.577 173.378 234.955 174.974C233.251 176.01 229.938 177.291 226.43 178.645C220.76 180.835 214.897 183.1 213.039 185.279C209.461 189.476 210.445 192.002 211.398 194.445C212.081 196.201 212.728 197.859 211.888 200.322L211.226 202.267C206.136 217.241 206.136 217.241 194.405 220.633C192.138 221.288 189.318 222.105 185.979 223.168C176.311 226.247 172.348 230.985 168.516 235.565C165.568 239.088 162.782 242.416 157.536 245.112C157.395 245.099 157.238 245.099 157.071 245.099C151.017 245.099 105.154 248.118 101.633 259.396C100.685 262.435 102.748 265.734 107.763 269.205C114.048 273.553 118.808 274.055 121.843 274.055C123.323 274.055 124.659 273.926 125.953 273.802C127.061 273.694 128.107 273.593 129.098 273.593C132.788 273.593 136.523 274.638 141.639 287.255C142.898 290.36 143.87 292.905 144.675 295.013C148.64 305.391 148.772 305.53 158.845 309.831C161.342 310.898 164.449 312.225 168.405 314.049C181.371 320.03 184.027 326.822 187.391 335.422C189.17 339.965 191.184 345.116 194.998 350.905C199.08 357.103 203.873 362.092 208.508 366.917C216.723 375.468 224.482 383.546 226.953 397.036C231.232 420.4 218.548 442.714 204.204 463.344C197.249 473.349 182.955 484.993 167.822 497.322C142.121 518.258 112.992 541.99 112.888 563.969C112.829 576.519 116.052 586.149 122.467 592.593C129.456 599.616 140.077 603.028 154.939 603.028C176.486 603.026 202.973 595.76 226.341 589.351C244.737 584.304 260.625 579.946 270.784 579.946C273.079 579.946 275.026 580.18 276.568 580.638C286.363 583.552 294.131 589.766 301.644 595.777C311.611 603.75 321.026 611.281 334.491 611.281C335.866 611.281 337.28 611.201 338.693 611.04Z" fill="white"/>
<path d="M367.614 61.1538C373.331 61.1538 379.636 59.7527 385.199 58.5179C388.05 57.8845 390.743 57.2881 392.896 56.9958C396.957 56.4481 400.905 56.2213 404.72 56.0013C412.667 55.5443 420.171 55.1125 426.132 51.724C430.933 48.9923 434.434 44.4949 436.833 37.9698C441.148 26.24 446.468 13.0639 454.022 0.000167847H453.44C445.946 13.0118 440.655 26.1208 436.36 37.7968C434.003 44.2043 430.575 48.616 425.883 51.2855C420.027 54.617 412.578 55.0437 404.692 55.499C400.865 55.7191 396.91 55.9459 392.828 56.4969C390.654 56.7909 387.952 57.3907 385.091 58.0257C379.552 59.2555 373.276 60.6482 367.614 60.6482C362.062 60.6482 358.125 59.2974 355.584 56.5187C349.406 49.7483 352.502 34.289 354.166 25.9831L354.426 24.6676C356.316 15.0967 359.347 6.94697 363.627 0.000167847H363.034C358.813 6.93857 355.81 15.0546 353.932 24.5702L353.67 25.8839C351.99 34.2772 348.864 49.8995 355.212 56.8581C357.855 59.7477 361.912 61.1538 367.614 61.1538Z" fill="white"/>
<path d="M497.67 -5.34058e-05H496.511C494.422 2.22091 492.637 4.25703 491.281 6.10168C472.755 31.2899 464.539 54.5395 466.16 77.1791C466.791 85.989 465.71 91.8187 462.855 95.0006C461.037 97.0283 458.442 98.0145 454.924 98.0145C450.037 98.0145 444.012 96.1514 437.635 94.1791C431.846 92.3882 425.858 90.5351 420.208 89.9186C415.963 89.4549 411.706 89.2298 407.195 89.2298C392.959 89.2298 379.431 91.4961 365.111 93.8951C362.705 94.2983 360.29 94.7032 357.86 95.098L357.677 95.1283C352.654 95.9464 346.959 96.8721 341.413 96.8721C330.93 96.8721 324.222 93.3962 320.9 86.2411C313.967 71.3042 315.906 53.3181 317.616 37.4522C317.848 35.3136 318.076 33.1968 318.281 31.1136C319.422 19.5199 321.424 9.20802 324.381 -5.34058e-05H323.489C320.566 9.19794 318.582 19.4829 317.444 31.0312C317.24 33.1111 317.011 35.2245 316.781 37.3615C315.059 53.3366 313.107 71.4453 320.139 86.5955C323.61 94.0766 330.57 97.7121 341.413 97.7121C347.026 97.7121 352.756 96.7797 357.812 95.9582L357.995 95.9279C360.426 95.5315 362.843 95.1266 365.251 94.7234C379.536 92.3311 393.028 90.0698 407.195 90.0698C411.674 90.0698 415.903 90.2932 420.116 90.7535C425.687 91.3617 431.636 93.2013 437.388 94.9804C443.827 96.9729 449.909 98.8545 454.924 98.8545C458.694 98.8545 461.493 97.7776 463.482 95.5617C466.496 92.2 467.645 86.1688 466.996 77.1187C465.392 54.6873 473.555 31.6192 491.956 6.59895C493.404 4.62999 495.372 2.42083 497.67 -5.34058e-05Z" fill="white"/>
<path d="M349.32 84.4404C352.914 84.4404 357.084 83.9986 363.266 82.962C378.942 80.3345 394.502 79.1098 412.238 79.1098C416.69 79.1098 421.266 79.1837 426.226 79.3383C427.951 79.3903 429.455 79.4172 430.817 79.4172C439.027 79.4172 443.819 78.421 447.352 75.9799C451.577 73.0601 454.085 67.9412 455.74 58.8658C459.535 38.0338 467.892 19.3135 482.012 0.00025177H481.39C467.357 19.2715 459.035 37.9733 455.244 58.7767C453.617 67.7076 451.171 72.7291 447.066 75.565C443.626 77.9439 438.917 78.9132 430.817 78.9132C429.46 78.9132 427.961 78.888 426.243 78.8342C421.278 78.6814 416.697 78.6058 412.238 78.6058C394.476 78.6058 378.887 79.8322 363.182 82.4647C357.03 83.4963 352.884 83.9364 349.32 83.9364C339.19 83.9364 331.927 80.5445 329.399 63.9831C326.982 48.1507 329.127 31.3894 331.351 20.1149C332.786 12.8405 334.772 6.16417 337.27 0.00025177H336.742C334.261 6.12385 332.289 12.7599 330.857 20.0192C328.625 31.3306 326.472 48.1541 328.9 64.0586C331.111 78.5369 337.026 84.4404 349.32 84.4404Z" fill="white"/>
<path d="M356.249 71.8164H356.251C357.825 71.8164 359.532 71.6652 361.321 71.3645C374.67 69.1267 388.96 67.8079 403.797 67.445C407.256 67.3594 410.58 67.4467 413.754 67.529C415.886 67.5845 417.9 67.6366 419.862 67.6366C425.904 67.6366 432.158 67.1696 436.988 63.7827C440.995 60.972 443.846 56.3133 445.706 49.5362C450.754 31.1419 458.008 14.8594 467.741 -0.000236511H467.143C457.473 14.8308 450.252 31.0697 445.22 49.4019C443.392 56.0614 440.605 60.631 436.699 63.3694C431.984 66.6773 425.82 67.1342 419.862 67.1342C417.905 67.1342 415.896 67.0805 413.767 67.025C410.587 66.9444 407.257 66.8554 403.785 66.941C388.925 67.3039 374.61 68.6244 361.237 70.8672C353.561 72.1558 347.847 70.6152 344.286 66.2825C336.175 56.4175 340.543 34.2835 342.888 22.3925C344.528 14.0832 346.974 6.65592 350.216 -0.000236511H349.647C346.443 6.63577 344.024 14.0345 342.394 22.295C340.032 34.2684 335.636 56.552 343.896 66.6034C346.74 70.0625 350.897 71.8164 356.249 71.8164Z" fill="white"/>
</g>
</svg>
