{
  "accessors": [
    {
      "bufferView": 2,
      "componentType": 5126,
      "count": 2639,
      "max": [
        6.437235189338253e-10,
        0.9334092140197754,
        0.9337007403373718
      ],
      "min": [
        -0.7009916305541992,
        -0.9330326914787292,
        -0.9322919249534607
      ],
      "type": "VEC3"
    },
    {
      "bufferView": 2,
      "byteOffset": 31668,
      "componentType": 5126,
      "count": 2639,
      "max": [
        1.0,
        0.9974071979522705,
        0.9931946992874146
      ],
      "min": [
        -1.0,
        -0.9976815581321716,
        -0.9999749660491943
      ],
      "type": "VEC3"
    },
    {
      "bufferView": 3,
      "componentType": 5126,
      "count": 2639,
      "max": [
        1.0,
        0.9954063296318054,
        0.9907522201538086,
        1.0
      ],
      "min": [
        -0.9999998807907104,
        -0.9920324087142944,
        -0.978770911693573,
        1.0
      ],
      "type": "VEC4"
    },
    {
      "bufferView": 1,
      "componentType": 5126,
      "count": 2639,
      "max": [
        0.9995810389518738,
        0.9995782375335693
      ],
      "min": [
        0.0008013322949409485,
        0.00034427508944645524
      ],
      "type": "VEC2"
    },
    {
      "bufferView": 0,
      "componentType": 5125,
      "count": 10800,
      "type": "SCALAR"
    }
  ],
  "asset": {
    "extras": {
      "author": "Serjogasan (https://sketchfab.com/Serjogasan)",
      "license": "CC-BY-4.0 (http://creativecommons.org/licenses/by/4.0/)",
      "source": "https://sketchfab.com/3d-models/wheel-44223c0adba8449b8438ede3441b256d",
      "title": "Wheel"
    },
    "generator": "Sketchfab-12.66.0",
    "version": "2.0"
  },
  "bufferViews": [
    {
      "buffer": 0,
      "byteLength": 43200,
      "name": "floatBufferViews",
      "target": 34963
    },
    {
      "buffer": 0,
      "byteLength": 21112,
      "byteOffset": 43200,
      "byteStride": 8,
      "name": "floatBufferViews",
      "target": 34962
    },
    {
      "buffer": 0,
      "byteLength": 63336,
      "byteOffset": 64312,
      "byteStride": 12,
      "name": "floatBufferViews",
      "target": 34962
    },
    {
      "buffer": 0,
      "byteLength": 42224,
      "byteOffset": 127648,
      "byteStride": 16,
      "name": "floatBufferViews",
      "target": 34962
    }
  ],
  "buffers": [
    {
      "byteLength": 169872,
      "uri": "scene.bin"
    }
  ],
  "images": [
    {
      "uri": "textures/Wheel.06_baseColor.png"
    },
    {
      "uri": "textures/Wheel.06_metallicRoughness.png"
    },
    {
      "uri": "textures/Wheel.06_normal.png"
    }
  ],
  "materials": [
    {
      "doubleSided": true,
      "name": "Wheel.06",
      "normalTexture": {
        "index": 2
      },
      "occlusionTexture": {
        "index": 1
      },
      "pbrMetallicRoughness": {
        "baseColorTexture": {
          "index": 0
        },
        "metallicFactor": 0.7495713477919851,
        "metallicRoughnessTexture": {
          "index": 1
        },
        "roughnessFactor": 0.13547385829548425
      }
    }
  ],
  "meshes": [
    {
      "name": "Wheel.06.Low.Poly_Wheel.06_0",
      "primitives": [
        {
          "attributes": {
            "NORMAL": 1,
            "POSITION": 0,
            "TANGENT": 2,
            "TEXCOORD_0": 3
          },
          "indices": 4,
          "material": 0,
          "mode": 4
        }
      ]
    }
  ],
  "nodes": [
    {
      "children": [
        1
      ],
      "matrix": [
        1.0,
        0.0,
        0.0,
        0.0,
        0.0,
        2.220446049250313e-16,
        -1.0,
        0.0,
        0.0,
        1.0,
        2.220446049250313e-16,
        0.0,
        0.0,
        0.0,
        0.0,
        1.0
      ],
      "name": "Sketchfab_model"
    },
    {
      "children": [
        2
      ],
      "matrix": [
        1.0,
        0.0,
        0.0,
        0.0,
        0.0,
        0.0,
        1.0,
        0.0,
        0.0,
        -1.0,
        0.0,
        0.0,
        0.0,
        0.0,
        0.0,
        1.0
      ],
      "name": "7b5195085e204b40b0023c1eb60484ca.fbx"
    },
    {
      "children": [
        3
      ],
      "name": "RootNode"
    },
    {
      "children": [
        4
      ],
      "matrix": [
        100.0,
        0.0,
        0.0,
        0.0,
        0.0,
        -1.629206793918314e-05,
        -99.99999999999868,
        0.0,
        0.0,
        99.99999999999868,
        -1.629206793918314e-05,
        0.0,
        0.0,
        0.0,
        0.0,
        1.0
      ],
      "name": "Wheel.06.Low.Poly"
    },
    {
      "mesh": 0,
      "name": "Wheel.06.Low.Poly_Wheel.06_0"
    }
  ],
  "samplers": [
    {
      "magFilter": 9729,
      "minFilter": 9987,
      "wrapS": 10497,
      "wrapT": 10497
    }
  ],
  "scene": 0,
  "scenes": [
    {
      "name": "Sketchfab_Scene",
      "nodes": [
        0
      ]
    }
  ],
  "textures": [
    {
      "sampler": 0,
      "source": 0
    },
    {
      "sampler": 0,
      "source": 1
    },
    {
      "sampler": 0,
      "source": 2
    }
  ]
}
