{
  "accessors": [
    {
      "bufferView": 2,
      "componentType": 5126,
      "count": 184,
      "max": [
        1.3710795640945435,
        -0.017852067947387695,
        2.92146372795105
      ],
      "min": [
        -1.372196912765503,
        -1.14920175075531,
        -2.1929516792297363
      ],
      "type": "VEC3"
    },
    {
      "bufferView": 2,
      "byteOffset": 2208,
      "componentType": 5126,
      "count": 184,
      "max": [
        0.904534101486206,
        0.70710688829422,
        0.7071067690849304
      ],
      "min": [
        -0.904534101486206,
        -0.904534101486206,
        -0.7071067690849304
      ],
      "type": "VEC3"
    },
    {
      "bufferView": 3,
      "componentType": 5126,
      "count": 184,
      "max": [
        0.70710688829422,
        1.0,
        0.816496729850769,
        1.0
      ],
      "min": [
        -0.9534626603126526,
        -1.0,
        -1.0,
        1.0
      ],
      "type": "VEC4"
    },
    {
      "bufferView": 1,
      "componentType": 5126,
      "count": 184,
      "max": [
        0.9776026606559753,
        0.9892081618309021
      ],
      "min": [
        0.0016141870291903615,
        0.0016157031059265137
      ],
      "type": "VEC2"
    },
    {
      "bufferView": 1,
      "byteOffset": 1472,
      "componentType": 5126,
      "count": 184,
      "max": [
        0.9776026606559753,
        0.9892081618309021
      ],
      "min": [
        0.0016141870291903615,
        0.0016157031059265137
      ],
      "type": "VEC2"
    },
    {
      "bufferView": 1,
      "byteOffset": 2944,
      "componentType": 5126,
      "count": 184,
      "max": [
        0.9776026606559753,
        0.9892081618309021
      ],
      "min": [
        0.0016141870291903615,
        0.0016157031059265137
      ],
      "type": "VEC2"
    },
    {
      "bufferView": 1,
      "byteOffset": 4416,
      "componentType": 5126,
      "count": 184,
      "max": [
        0.9776026606559753,
        0.9892081618309021
      ],
      "min": [
        0.0016141870291903615,
        0.0016157031059265137
      ],
      "type": "VEC2"
    },
    {
      "bufferView": 1,
      "byteOffset": 5888,
      "componentType": 5126,
      "count": 184,
      "max": [
        0.9776026606559753,
        0.9892081618309021
      ],
      "min": [
        0.0016141870291903615,
        0.0016157031059265137
      ],
      "type": "VEC2"
    },
    {
      "bufferView": 1,
      "byteOffset": 7360,
      "componentType": 5126,
      "count": 184,
      "max": [
        0.9776026606559753,
        0.9892081618309021
      ],
      "min": [
        0.0016141870291903615,
        0.0016157031059265137
      ],
      "type": "VEC2"
    },
    {
      "bufferView": 1,
      "byteOffset": 8832,
      "componentType": 5126,
      "count": 184,
      "max": [
        0.9776026606559753,
        0.9892081618309021
      ],
      "min": [
        0.0016141870291903615,
        0.0016157031059265137
      ],
      "type": "VEC2"
    },
    {
      "bufferView": 1,
      "byteOffset": 10304,
      "componentType": 5126,
      "count": 184,
      "max": [
        0.9776026606559753,
        0.9892081618309021
      ],
      "min": [
        0.0016141870291903615,
        0.0016157031059265137
      ],
      "type": "VEC2"
    },
    {
      "bufferView": 1,
      "byteOffset": 11776,
      "componentType": 5126,
      "count": 184,
      "max": [
        0.9776026606559753,
        0.9892081618309021
      ],
      "min": [
        0.0016141870291903615,
        0.0016157031059265137
      ],
      "type": "VEC2"
    },
    {
      "bufferView": 1,
      "byteOffset": 13248,
      "componentType": 5126,
      "count": 184,
      "max": [
        0.9776026606559753,
        0.9892081618309021
      ],
      "min": [
        0.0016141870291903615,
        0.0016157031059265137
      ],
      "type": "VEC2"
    },
    {
      "bufferView": 0,
      "componentType": 5125,
      "count": 468,
      "type": "SCALAR"
    },
    {
      "bufferView": 2,
      "byteOffset": 4416,
      "componentType": 5126,
      "count": 18,
      "max": [
        0.3915097713470459,
        -1.0953772068023682,
        2.7759346961975098
      ],
      "min": [
        -0.39150959253311157,
        -1.1492007970809937,
        -2.068100690841675
      ],
      "type": "VEC3"
    },
    {
      "bufferView": 2,
      "byteOffset": 4632,
      "componentType": 5126,
      "count": 18,
      "max": [
        0.5773503184318542,
        0.5773503184318542,
        0.5773503184318542
      ],
      "min": [
        -0.5773503184318542,
        -0.5773503184318542,
        -0.5773503184318542
      ],
      "type": "VEC3"
    },
    {
      "bufferView": 3,
      "byteOffset": 2944,
      "componentType": 5126,
      "count": 18,
      "max": [
        0.408250093460083,
        0.816496729850769,
        0.4082501530647278,
        1.0
      ],
      "min": [
        -0.4082489311695099,
        -0.816496729850769,
        -0.8164966106414795,
        1.0
      ],
      "type": "VEC4"
    },
    {
      "bufferView": 1,
      "byteOffset": 14720,
      "componentType": 5126,
      "count": 18,
      "max": [
        0.8131144642829895,
        0.4930250346660614
      ],
      "min": [
        0.001621037838049233,
        0.22613413631916046
      ],
      "type": "VEC2"
    },
    {
      "bufferView": 1,
      "byteOffset": 14864,
      "componentType": 5126,
      "count": 18,
      "max": [
        0.8131144642829895,
        0.4930250346660614
      ],
      "min": [
        0.001621037838049233,
        0.22613413631916046
      ],
      "type": "VEC2"
    },
    {
      "bufferView": 1,
      "byteOffset": 15008,
      "componentType": 5126,
      "count": 18,
      "max": [
        0.8131144642829895,
        0.4930250346660614
      ],
      "min": [
        0.001621037838049233,
        0.22613413631916046
      ],
      "type": "VEC2"
    },
    {
      "bufferView": 1,
      "byteOffset": 15152,
      "componentType": 5126,
      "count": 18,
      "max": [
        0.8131144642829895,
        0.4930250346660614
      ],
      "min": [
        0.001621037838049233,
        0.22613413631916046
      ],
      "type": "VEC2"
    },
    {
      "bufferView": 1,
      "byteOffset": 15296,
      "componentType": 5126,
      "count": 18,
      "max": [
        0.8131144642829895,
        0.4930250346660614
      ],
      "min": [
        0.001621037838049233,
        0.22613413631916046
      ],
      "type": "VEC2"
    },
    {
      "bufferView": 1,
      "byteOffset": 15440,
      "componentType": 5126,
      "count": 18,
      "max": [
        0.8131144642829895,
        0.4930250346660614
      ],
      "min": [
        0.001621037838049233,
        0.22613413631916046
      ],
      "type": "VEC2"
    },
    {
      "bufferView": 1,
      "byteOffset": 15584,
      "componentType": 5126,
      "count": 18,
      "max": [
        0.8131144642829895,
        0.4930250346660614
      ],
      "min": [
        0.001621037838049233,
        0.22613413631916046
      ],
      "type": "VEC2"
    },
    {
      "bufferView": 1,
      "byteOffset": 15728,
      "componentType": 5126,
      "count": 18,
      "max": [
        0.8131144642829895,
        0.4930250346660614
      ],
      "min": [
        0.001621037838049233,
        0.22613413631916046
      ],
      "type": "VEC2"
    },
    {
      "bufferView": 1,
      "byteOffset": 15872,
      "componentType": 5126,
      "count": 18,
      "max": [
        0.8131144642829895,
        0.4930250346660614
      ],
      "min": [
        0.001621037838049233,
        0.22613413631916046
      ],
      "type": "VEC2"
    },
    {
      "bufferView": 1,
      "byteOffset": 16016,
      "componentType": 5126,
      "count": 18,
      "max": [
        0.8131144642829895,
        0.4930250346660614
      ],
      "min": [
        0.001621037838049233,
        0.22613413631916046
      ],
      "type": "VEC2"
    },
    {
      "bufferView": 0,
      "byteOffset": 1872,
      "componentType": 5125,
      "count": 36,
      "type": "SCALAR"
    },
    {
      "bufferView": 2,
      "byteOffset": 4848,
      "componentType": 5126,
      "count": 348,
      "max": [
        0.06694388389587402,
        0.8322284817695618,
        0.8623154163360596
      ],
      "min": [
        -1.3481810092926025,
        -1.1762444972991943,
        0.7258048057556152
      ],
      "type": "VEC3"
    },
    {
      "bufferView": 2,
      "byteOffset": 9024,
      "componentType": 5126,
      "count": 348,
      "max": [
        0.9807852506637573,
        0.9615563154220581,
        1.0
      ],
      "min": [
        -0.9807854294776917,
        -0.9003279805183411,
        -1.0
      ],
      "type": "VEC3"
    },
    {
      "bufferView": 3,
      "byteOffset": 3232,
      "componentType": 5126,
      "count": 348,
      "max": [
        0.9893471598625183,
        1.0,
        0.989346981048584,
        1.0
      ],
      "min": [
        -0.9615563154220581,
        -0.9646332263946533,
        -0.9913473129272461,
        1.0
      ],
      "type": "VEC4"
    },
    {
      "bufferView": 1,
      "byteOffset": 16160,
      "componentType": 5126,
      "count": 348,
      "max": [
        0.995326817035675,
        0.9983866214752197
      ],
      "min": [
        0.6076565980911255,
        0.0016156859928742051
      ],
      "type": "VEC2"
    },
    {
      "bufferView": 1,
      "byteOffset": 18944,
      "componentType": 5126,
      "count": 348,
      "max": [
        0.995326817035675,
        0.9983866214752197
      ],
      "min": [
        0.6076565980911255,
        0.0016156859928742051
      ],
      "type": "VEC2"
    },
    {
      "bufferView": 1,
      "byteOffset": 21728,
      "componentType": 5126,
      "count": 348,
      "max": [
        0.995326817035675,
        0.9983866214752197
      ],
      "min": [
        0.6076565980911255,
        0.0016156859928742051
      ],
      "type": "VEC2"
    },
    {
      "bufferView": 1,
      "byteOffset": 24512,
      "componentType": 5126,
      "count": 348,
      "max": [
        0.995326817035675,
        0.9983866214752197
      ],
      "min": [
        0.6076565980911255,
        0.0016156859928742051
      ],
      "type": "VEC2"
    },
    {
      "bufferView": 1,
      "byteOffset": 27296,
      "componentType": 5126,
      "count": 348,
      "max": [
        0.995326817035675,
        0.9983866214752197
      ],
      "min": [
        0.6076565980911255,
        0.0016156859928742051
      ],
      "type": "VEC2"
    },
    {
      "bufferView": 1,
      "byteOffset": 30080,
      "componentType": 5126,
      "count": 348,
      "max": [
        0.995326817035675,
        0.9983866214752197
      ],
      "min": [
        0.6076565980911255,
        0.0016156859928742051
      ],
      "type": "VEC2"
    },
    {
      "bufferView": 1,
      "byteOffset": 32864,
      "componentType": 5126,
      "count": 348,
      "max": [
        0.995326817035675,
        0.9983866214752197
      ],
      "min": [
        0.6076565980911255,
        0.0016156859928742051
      ],
      "type": "VEC2"
    },
    {
      "bufferView": 1,
      "byteOffset": 35648,
      "componentType": 5126,
      "count": 348,
      "max": [
        0.995326817035675,
        0.9983866214752197
      ],
      "min": [
        0.6076565980911255,
        0.0016156859928742051
      ],
      "type": "VEC2"
    },
    {
      "bufferView": 1,
      "byteOffset": 38432,
      "componentType": 5126,
      "count": 348,
      "max": [
        0.995326817035675,
        0.9983866214752197
      ],
      "min": [
        0.6076565980911255,
        0.0016156859928742051
      ],
      "type": "VEC2"
    },
    {
      "bufferView": 1,
      "byteOffset": 41216,
      "componentType": 5126,
      "count": 348,
      "max": [
        0.995326817035675,
        0.9983866214752197
      ],
      "min": [
        0.6076565980911255,
        0.0016156859928742051
      ],
      "type": "VEC2"
    },
    {
      "bufferView": 0,
      "byteOffset": 2016,
      "componentType": 5125,
      "count": 990,
      "type": "SCALAR"
    }
  ],
  "asset": {
    "extras": {
      "author": "NghiaNguyeen (https://sketchfab.com/kiroy2002)",
      "license": "CC-BY-4.0 (http://creativecommons.org/licenses/by/4.0/)",
      "source": "https://sketchfab.com/3d-models/old-school-cabinet-af9c49cdc47e4eb2bcdd24b631ae4808",
      "title": "Old School Cabinet"
    },
    "generator": "Sketchfab-14.1.2",
    "version": "2.0"
  },
  "bufferViews": [
    {
      "buffer": 0,
      "byteLength": 5976,
      "name": "floatBufferViews",
      "target": 34963
    },
    {
      "buffer": 0,
      "byteLength": 44000,
      "byteOffset": 5976,
      "byteStride": 8,
      "name": "floatBufferViews",
      "target": 34962
    },
    {
      "buffer": 0,
      "byteLength": 13200,
      "byteOffset": 49976,
      "byteStride": 12,
      "name": "floatBufferViews",
      "target": 34962
    },
    {
      "buffer": 0,
      "byteLength": 8800,
      "byteOffset": 63176,
      "byteStride": 16,
      "name": "floatBufferViews",
      "target": 34962
    }
  ],
  "buffers": [
    {
      "byteLength": 71976,
      "uri": "scene.bin"
    }
  ],
  "images": [
    {
      "uri": "textures/Material.001_baseColor.jpeg"
    },
    {
      "uri": "textures/Material.001_metallicRoughness.png"
    },
    {
      "uri": "textures/Material.001_normal.png"
    }
  ],
  "materials": [
    {
      "doubleSided": true,
      "name": "Material.001",
      "normalTexture": {
        "index": 2
      },
      "occlusionTexture": {
        "index": 1
      },
      "pbrMetallicRoughness": {
        "baseColorTexture": {
          "index": 0
        },
        "metallicRoughnessTexture": {
          "index": 1
        }
      }
    }
  ],
  "meshes": [
    {
      "name": "1_L_Material.001_0",
      "primitives": [
        {
          "attributes": {
            "NORMAL": 1,
            "POSITION": 0,
            "TANGENT": 2,
            "TEXCOORD_0": 3,
            "TEXCOORD_1": 4,
            "TEXCOORD_2": 5,
            "TEXCOORD_3": 6,
            "TEXCOORD_4": 7,
            "TEXCOORD_5": 8,
            "TEXCOORD_6": 9,
            "TEXCOORD_7": 10,
            "TEXCOORD_8": 11,
            "TEXCOORD_9": 12
          },
          "indices": 13,
          "material": 0,
          "mode": 4
        }
      ]
    },
    {
      "name": "2_L_Material.001_0",
      "primitives": [
        {
          "attributes": {
            "NORMAL": 15,
            "POSITION": 14,
            "TANGENT": 16,
            "TEXCOORD_0": 17,
            "TEXCOORD_1": 18,
            "TEXCOORD_2": 19,
            "TEXCOORD_3": 20,
            "TEXCOORD_4": 21,
            "TEXCOORD_5": 22,
            "TEXCOORD_6": 23,
            "TEXCOORD_7": 24,
            "TEXCOORD_8": 25,
            "TEXCOORD_9": 26
          },
          "indices": 27,
          "material": 0,
          "mode": 4
        }
      ]
    },
    {
      "name": "3_L_Material.001_0",
      "primitives": [
        {
          "attributes": {
            "NORMAL": 29,
            "POSITION": 28,
            "TANGENT": 30,
            "TEXCOORD_0": 31,
            "TEXCOORD_1": 32,
            "TEXCOORD_2": 33,
            "TEXCOORD_3": 34,
            "TEXCOORD_4": 35,
            "TEXCOORD_5": 36,
            "TEXCOORD_6": 37,
            "TEXCOORD_7": 38,
            "TEXCOORD_8": 39,
            "TEXCOORD_9": 40
          },
          "indices": 41,
          "material": 0,
          "mode": 4
        }
      ]
    }
  ],
  "nodes": [
    {
      "children": [
        1
      ],
      "matrix": [
        1.0,
        0.0,
        0.0,
        0.0,
        0.0,
        2.220446049250313e-16,
        -1.0,
        0.0,
        0.0,
        1.0,
        2.220446049250313e-16,
        0.0,
        0.0,
        0.0,
        0.0,
        1.0
      ],
      "name": "Sketchfab_model"
    },
    {
      "children": [
        2
      ],
      "matrix": [
        0.009999999776482582,
        0.0,
        0.0,
        0.0,
        0.0,
        0.0,
        0.009999999776482582,
        0.0,
        0.0,
        -0.009999999776482582,
        0.0,
        0.0,
        0.0,
        0.0,
        0.0,
        1.0
      ],
      "name": "8ebf6ff6f0cf4509b2c1c6c14a4ba788.fbx"
    },
    {
      "children": [
        3,
        5,
        7
      ],
      "name": "RootNode"
    },
    {
      "children": [
        4
      ],
      "matrix": [
        100.0,
        0.0,
        0.0,
        0.0,
        0.0,
        -1.331580541386046e-05,
        -99.99999999999912,
        0.0,
        0.0,
        99.99999999999912,
        -1.331580541386046e-05,
        0.0,
        0.0,
        0.0,
        0.0,
        1.0
      ],
      "name": "1_L"
    },
    {
      "mesh": 0,
      "name": "1_L_Material.001_0"
    },
    {
      "children": [
        6
      ],
      "matrix": [
        -43.52121519705742,
        0.0,
        90.03281001684589,
        0.0,
        90.0328100168427,
        2.6631614935791167e-05,
        43.52121519705586,
        0.0,
        -2.3977183966072957e-05,
        99.99999999999646,
        -1.1590398929506307e-05,
        0.0,
        -39.61260986328125,
        0.0,
        200.18336486816406,
        1.0
      ],
      "name": "2_L"
    },
    {
      "mesh": 1,
      "name": "2_L_Material.001_0"
    },
    {
      "children": [
        8
      ],
      "matrix": [
        -43.521172590466996,
        -1.1590389326077144e-05,
        90.03281366452262,
        0.0,
        90.03281366452333,
        -2.654422326386907e-06,
        43.521172590467,
        0.0,
        -2.65442223201795e-06,
        99.9999999999993,
        1.1590389337179374e-05,
        0.0,
        -39.61260986328125,
        0.0,
        200.18336486816406,
        1.0
      ],
      "name": "3_L"
    },
    {
      "mesh": 2,
      "name": "3_L_Material.001_0"
    }
  ],
  "samplers": [
    {
      "magFilter": 9729,
      "minFilter": 9987,
      "wrapS": 10497,
      "wrapT": 10497
    }
  ],
  "scene": 0,
  "scenes": [
    {
      "name": "Sketchfab_Scene",
      "nodes": [
        0
      ]
    }
  ],
  "textures": [
    {
      "sampler": 0,
      "source": 0
    },
    {
      "sampler": 0,
      "source": 1
    },
    {
      "sampler": 0,
      "source": 2
    }
  ]
}
